<?xml version="1.0" encoding="utf-8"?>
<!-- Generator: Adobe Illustrator 24.0.1, SVG Export Plug-In . SVG Version: 6.00 Build 0)  -->
<svg version="1.1" id="Layer_1" xmlns="http://www.w3.org/2000/svg" xmlns:xlink="http://www.w3.org/1999/xlink" x="0px" y="0px"
	 viewBox="0 0 386.46 208.83" style="enable-background:new 0 0 386.46 208.83;" xml:space="preserve">
<g id="Layer_1_1_">
	<g>
		<g>
			<path d="M111.32,144.28l7.97,1.25l-3.64,23.11c0.98-1.07,2.18-1.94,3.61-2.7c2.4-1.25,5.84-2.35,10.54-1.61
				c9.56,1.51,16.61,11.19,14.8,22.75c-1.82,11.56-11.5,18.61-21.07,17.1c-4.7-0.74-7.64-2.84-9.54-4.77
				c-1.12-1.16-2-2.36-2.61-3.68l-0.88,5.58l-7.97-1.25L111.32,144.28z M136.63,185.83c1.14-7.25-3.24-13.17-9.61-14.17
				c-6.38-1-12.36,3.28-13.5,10.53s3.24,13.17,9.61,14.17C129.51,197.37,135.49,193.08,136.63,185.83z"/>
			<path d="M173.83,168.54c11.28,0.5,19.75,9.76,19.25,21.04s-9.76,19.75-21.05,19.25c-11.28-0.5-19.75-9.76-19.25-21.05
				C153.28,176.51,162.54,168.04,173.83,168.54z M185.02,189.23c0.33-7.33-4.68-12.73-11.53-13.03s-12.32,4.62-12.64,11.96
				c-0.33,7.33,4.68,12.73,11.53,13.03S184.69,196.56,185.02,189.23z"/>
			<path d="M220.12,168.14c11.27-0.69,20.68,7.62,21.37,18.89c0.69,11.28-7.62,20.68-18.89,21.37
				c-11.28,0.69-20.68-7.62-21.37-18.89C200.53,178.24,208.85,168.83,220.12,168.14z M233.44,187.53c-0.45-7.33-6-12.16-12.85-11.74
				s-11.76,5.9-11.31,13.23c0.45,7.33,6,12.16,12.85,11.74C228.98,200.33,233.89,194.86,233.44,187.53z"/>
			<path d="M246.2,148.97l7.96-1.34l5.89,35.01l13.37-20.25l9.94-1.67l-12.11,17.99l19.73,20l-9.15,1.54l-14.81-15.1l-5.23,7.83
				l1.74,10.34l-7.96,1.34L246.2,148.97z"/>
		</g>
	</g>
</g>
<g id="Layer_2_1_">
	<g>
		<path d="M12,84.8c1.76,2.4,4,4.48,6.72,6.4c4.64,3.2,11.68,6.4,21.28,6.4c14.56,0,22.4-7.84,22.4-16.8c0-24.8-59.2-9.6-59.2-51.2
			c0-16.8,14.56-31.2,38.4-31.2c11.52,0,20.32,3.52,26.24,7.2c3.52,2.08,6.56,4.48,8.96,7.2l-12,12c-1.76-1.92-3.68-3.68-5.92-5.12
			c-3.84-2.56-9.76-5.28-17.28-5.28c-13.6,0-20.8,7.04-20.8,15.2c0,24.8,59.2,9.6,59.2,51.2c0,17.6-15.2,32.8-40,32.8
			c-13.6,0-23.68-4-30.24-8.32C5.92,102.88,2.72,100,0,96.8L12,84.8z"/>
		<path d="M330.39,0h16v112h-16V0z"/>
		<path d="M370.39,0h16v112h-16V0z"/>
		<path d="M272,24.79c-13.6,0-24-10.24-24-24.8h-16c0,22.4,17.6,40,40,40s40-17.6,40-40h-16C296,14.55,285.6,24.79,272,24.79z"/>
		<path d="M272,87.2c13.6,0,24,10.24,24,24.8h16c0-22.4-17.6-40-40-40s-40,17.6-40,40h16C248,97.44,258.4,87.2,272,87.2z"/>
		<path d="M196.8,111.6L196.8,111.6c0-13.6,9.76-23.2,20.8-23.2c1.76,0,3.04,0.32,4.32,0.48L224,89.2V72.4h-4
			c-7.68,0-13.44,3.04-17.28,6.08c-2.24,1.76-4.16,3.84-5.92,5.92V74h-16v37.6L196.8,111.6L196.8,111.6z"/>
		<rect x="180.8" width="16" height="39.2"/>
		<path d="M108.8,111.6c0-14.56,10.4-24.8,24-24.8c6.88,0,11.84,2.72,15.52,5.28c2.08,1.44,3.84,3.2,5.28,5.12l11.2-10.4
			c-2.08-2.72-4.8-5.28-7.84-7.52c-5.28-3.84-13.28-7.68-24.16-7.68c-22.4,0-40,17.6-40,40L108.8,111.6L108.8,111.6z"/>
		<path d="M148.64,19.2c-3.68,3.04-8.96,5.6-15.84,5.6c-13.6,0-24-10.24-24-24.8l0,0h-16l0,0c0,22.4,17.6,40,40,40
			c10.88,0,18.88-4,24.48-8c3.2-2.4,5.92-4.96,8.32-8l-11.2-10.4C152.64,15.68,150.72,17.6,148.64,19.2z"/>
	</g>
</g>
</svg>
