<?xml version="1.0" encoding="utf-8"?>
<!-- Generator: Adobe Illustrator 24.0.1, SVG Export Plug-In . SVG Version: 6.00 Build 0)  -->
<svg version="1.1" id="Layer_1" xmlns="http://www.w3.org/2000/svg" xmlns:xlink="http://www.w3.org/1999/xlink" x="0px" y="0px"
	 viewBox="0 0 1173.25 1451.68" style="enable-background:new 0 0 1173.25 1451.68;" xml:space="preserve">
<style type="text/css">
	.st0{fill:#020100;}
	.st1{fill:#FFFFFF;}
	.st2{fill:#000649;}
	.st3{fill:#604C53;}
	.st4{fill:#80B0A6;}
	.st5{fill:#FAD000;}
	.st6{fill:#FF6E53;}
	.st7{fill:#EC3D2B;}
	.st8{fill:#A12133;}
	.st9{fill:#F9B200;}
	.st10{fill:#F7BC00;}
	.st11{fill:url(#SVGID_4_);}
	.st12{clip-path:url(#SVGID_6_);}
	.st13{clip-path:url(#SVGID_8_);}
	.st14{fill:#F9C900;}
	.st15{clip-path:url(#SVGID_9_);}
	.st16{clip-path:url(#SVGID_10_);}
	.st17{clip-path:url(#SVGID_11_);}
	.st18{fill:#C4C2C2;}
	.st19{fill:none;stroke:#C4C2C2;stroke-width:60;stroke-miterlimit:10;}
	.st20{fill:#F79200;}
	.st21{fill:#D81A22;}
	.st22{fill:#BF0F16;}
	.st23{fill:#FAD02F;}
	.st24{fill:none;}
</style>
<g>
	<g id="Group_143" transform="translate(-69.294 -1099.842)">
		<path id="Path_1125" class="st20" d="M562.82,1694.5l-6.99,39.67l3.67,67.55l136.92,72.44l86.48,19.07l90.82-51.23V1694.5H562.82z
			"/>
		<path id="Path_1126" class="st21" d="M563.6,1699.31c0,0-27.64,4.7-37.84,19.7s-2.71,28.95-11.04,37.49
			c-8.33,8.54-22.91,13.75-25.41,30.2c0,0-31.01,10.82-56.64,25.41s-85.41,34.88-131.32,44.84s-101.79,32.74-140.58,61.93
			s-46.87,77.03-49.3,99.09s-3.27,57.56,0,94.53s38.04,87.04,61.77,147.14s56.15,99.66,213.5,160.71
			c102.07,39.6,111.77-45.81,223.53,0c89.07,36.51,149.29,90.36,225.73,91.17c123.36,1.3,89.85-77,143.02-152.72
			c67.1-95.58,66.22-57.83,95-141.03c14.87-75.61,121.5-80.05,125.38-149.9s10.78-123.77-24.68-148.63s-56.13-19.67-89.9-37.89
			s-102.77-35.23-124.39-47.62s-38.14-16.04-42.03-32.07s-1.22-20.65-3.64-34.74s0.04-36.49-18.57-44.6c0,0-4.32,17.23-10.07,28.62
			s-25.74,46.58-35.72,59.39s-4.79,11.75-14.4,21.09s-32.57,24.51-47.16,33.1s-6.4,7.08-27.74,9.64s-63.82,3.11-100.34-28.01
			s-45.46-47.08-63.04-59.26s-28.95-25.64-34.3-41.88S561.96,1705.27,563.6,1699.31z"/>
		<path id="Path_1127" class="st22" d="M388.85,1831.23c17.93-6.78,33.61-13.31,43.82-19.12c25.62-14.59,56.64-25.41,56.64-25.41
			c2.5-16.45,17.08-21.66,25.41-30.2s0.83-22.5,11.04-37.49s37.84-19.7,37.84-19.7c-1.64,5.97-5.56,29.46-0.21,45.7
			s16.71,29.7,34.3,41.88c17.59,12.18,26.52,28.14,63.04,59.26c27.56,23.47,58.5,28.93,81.2,29.09c2.04,0.56,3.9,1.62,5.41,3.09
			c1.65,1.76,2.9,3.86,3.66,6.14l3.51-3.73l-2.78,0.15c0,0,2.27-5.63,12.91-6.73c13.96-1.44,11.83,14.07,4.61,26.36
			s-7.99,17.98-7.99,17.98v-17.67l-10.45,17.06l1.69-15.83l-9.37,11.99c0,0,3.69-7.38,3.38-21.98s-19.36-15.06-19.36-15.06
			c19.67,12.45,6.61,31.96,6.61,31.96c0.61-22.9-7.38-26.28-7.38-26.28c2.64,21.21-5.84,31.96-5.84,31.96v-9.22l-5.77,11.52
			l-1.91-18.13c-3.23,7.53-1.54,16.44-1.54,16.44s-7.99-9.99-5.99-19.36s-2-11.37-2-11.37l-2.3,18.59l-1.54-18.59l-5.69,25.51
			l-2.15-14.44c0.61,15.21-5.84,19.67-5.84,19.67c8.3-15.37-1.08-35.8-1.08-35.8l-1.23,23.66l-4.15-23.36
			c-0.15,14.29-8.9,25.51-8.9,25.51c0.47-5.52,0.47-11.08,0-16.6c-1.83,12.91-6.62,17.82-6.62,17.82
			c0.09-5.43-0.47-10.85-1.69-16.14l-4.61,16.14c2.92-24.28-2.92-40.41-2.92-40.41c2,10.76,0,27.81,0,27.81
			c-1.84-23.36-13.22-45.95-13.22-45.95c4.92,9.68,4.46,20.28,4.92,30.58s5.69,16.14,5.69,16.14l-3.84-3.84
			c-3.23,16.75-19.36,11.83-22.74-2.15c-1.97-8.27-5.18-16.2-9.53-23.51c1.38,9.07,1.84,28.05,1.84,28.05l-5.84-13.45
			c-0.92,9.22,2.92,20.44,2.92,20.44c-9.99-11.37-10.3-43.95-10.3-43.95c-2.61,7.53-3.38,40.57-3.38,40.57
			c-8.91-18.13-7.53-51.32-7.53-51.32s-2.92,26.28-2.92,26.74s-7.53-34.73-7.53-34.73l-4.61,23.66c2.3-15.98,2.15-45.79,2.15-45.79
			c-0.61,19.98-8.14,67.31-18.75,62.33c-6.95-3.26-5.53-16.85-0.77-35.75c2.86-11.08,3.8-22.57,2.77-33.96
			c0,11.52-6.61,41.03-6.61,41.03c0.46-10.6,2.15-47.33,2.15-47.33s-4.3,8.91-4.46,16.75s-4.15,18.59-4.15,18.59l-0.77-16.14
			c-3.69,19.82-13.37,34.11-18.59,28.89s0.77-15.98,4.61-25.66s5.99-23.2,5.99-23.2l-8.91,16.71c0.92-11.1,6.91-27.62,6.91-27.62
			c-5.99,7.99-12.41,27.62-12.41,27.62s2.17-13.38,9.4-31.47s3.26-39.39,3.26-39.39s-5.01,14.83-5.55,39.28l-2.23-12.24
			c0,0-2.13,6.61-5.53,20.02s-11.5,32.35-22.03,25.54s10.11-25.86,13.52-35.23l-9.79,12.03c0,0,8.62-17.56,15.75-25.65
			c0,0-3.09,1.7-16.28,10.32c-13.2,8.62-17.77,26.61-17.77,26.61s6.39,15.22,18.41,26.08l-5.75-8.83c0,0,11.6,5.75,17.03,17.46
			s12.13,20.75,27.99,33.95c0,0-11.49-1.81-17.14-5.32l10.43,6.39c-15.47,5.35-31.57,8.68-47.9,9.9c0,0,4.36-8.41,11.49-12.45
			c0,0-19.58-0.64-28.1,2.45c1.04-2.2,2.66-4.08,4.68-5.43c0,0-8.2-1.28-23.42,6.49s-42.89,19.05-42.89,19.05
			s22.78-31.4,42.47-41.08c0,0-17.24,3.83-32.14,6.17c0,0,2.66-8.94,15.54-17.14l-29.7,10.96c11.03-10.41,23-19.78,35.76-27.99
			l-35.12,17.67l44.81-29.06c0,0-43.85,19.05-64.82,25.54s-31.4,7.66-31.4,7.66S378.52,1835.14,388.85,1831.23z"/>
		<path id="Path_1128" d="M1016.18,1500.28c-0.12-3.04-1.22-5.96-3.14-8.32c0,0,0.74-13.16-2.45-23.81s2.77-13.2,1.28-34.06
			s-13.18-60.41-19.58-76.95s-21.35-40.56-28.42-48.57s-22.55-32.42-22.55-32.42l5.47,11.34c0,0-4.27-7.74-17.88-25.88
			s-11.87-27.75-25.62-40.43s-13.34-18.15-20.81-36.02s-12.01-15.21-12.01-15.21c-13.48-20.28-30.15-13.34-30.15-13.34
			c-16.28-6.94-36.69-4.67-36.69-4.67c-33.49-16.15-51.63-3.33-51.63-3.33s-10.94-11.21-33.76-8.27s-38.96,27.08-38.96,27.08
			c-24.82-27.89-40.69-12.28-40.69-12.28c-23.35-2.4-39.76,21.31-39.76,21.31c-44.34,14.2-77.24,56.91-77.24,56.91
			c-19.86,15.33-25.79,48.62-25.79,48.62c3.6-14.05,12.89-27.36,12.89-27.36c-2.44,5.23-1.92,14.29-1.92,14.29
			c-28.93,51.75-28.4,59.94-28.4,59.94l33.63-56.98c0,0-18.2,39.08-34.05,63.3s-22.63,80.8-25.8,88.27s-2.8,17.37-2.8,17.37
			c-13.56,14.72-6.92,45.74-6.92,45.74l1.59-5.34l0.72,6.35c-19.05,10.97-13.42,31.89-13.42,31.89s-12.99,8.22-14.14,29.58
			s16.59,36.07,16.59,36.07c-23.23-29.87-0.87-60.46-0.87-60.46c-14.57,30.59,1.5,50.5,1.5,50.5s-9.47-29.48,7.21-29.48
			s18.94,15.17,18.94,15.17c-3.66,5.27-2.04,11.62-2.04,11.62c-6.56,0.11-11.73-4.52-11.73-4.52c1.99,5.76,6.71,10.15,12.59,11.73
			c5.92,14.85,17.57,10.96,17.57,10.96c-0.49,6.81,0.44,13.64,2.71,20.08c-4.01,5.36-8.42,10.41-13.17,15.12
			c5.73-2.55,10.71-7.01,14.66-11.5c4.08,8.81,10.82,16.12,19.27,20.9c2.52,23.46,15.9,34.13,15.9,34.13
			c-9.11-19.39-9.11-41.88-9.11-41.88c7.37,8.92,4.27,15.71,13.18,41.3c4.88,14.79,17.59,25.63,32.97,28.12
			c-12.22-6.01-18.03-19.97-18.03-19.97c8.73,9.5,20.94,7.95,20.94,7.95c3.1,4.65,8.73,6.4,8.73,6.4l319.16-42.58l38.72-54.21
			l-3.74,30.39c7.84-14.23,13.63-42.57,13.63-42.57c0.84,21.71-8.32,35.21-8.32,35.21c5.31-2.28,9.78-6.15,12.78-11.09
			c-1.41,8.18-6.41,15.31-13.63,19.42c20.98-3.02,17.85-29.55,17.85-29.55c11.7-6.99,14.35-16.4,14.35-16.4
			c-0.12,12.66-12.3,27.5-12.3,27.5c28.82-10.25,22.67-43.42,22.67-43.42c10.97,5.06,15.68-5.67,27.13-4.46s20.14,3.5,26.17-1.93
			s4.1-11.34,4.1-11.34s5.79-7.84,6.39-21.71S1016.18,1500.28,1016.18,1500.28z M480.56,1590.62l5.34,10.43l1.02-1.95l-2.27-9.42
			c4.41,15.39,14.53,30.34,14.53,30.34l0.43,11.94C481.42,1607.31,480.56,1590.62,480.56,1590.62z M943.49,1592.31v-9.05l3.77-5.03
			C947.76,1587.28,943.49,1592.31,943.49,1592.31L943.49,1592.31z"/>
		<path id="Path_1129" class="st23" d="M935.13,1381.09c-9.93-34.45-23.74-55.86-23.74-55.86l2.86,1.16
			c-21.34-30.29-23.98-44.91-23.98-44.91l3.03,0.47c-1.09-2.94-4.12-4.68-7.21-4.17l1.23-5.21l-4.36,2.56l1.04-5.12l-4.01,3.93
			c1.81-19.95-32.53-21.96-48.19-6.99c-29.62,28.3-34.06,89.5-34.06,89.5c1.24-15.26-13.84-28.57-13.84-28.57
			c6.57,13.84,8.7,38.33,8.7,38.33c-3.55-23.6-21.65-41.18-21.65-41.18s5.86,12.96,9.58,18.81s6.11,17.01,6.11,17.01l-4.74-7.82
			c4.43,9.49,3.95,21.51,3.95,21.51c-1.58-10.12-8.86-21.82-8.86-21.82c2.21,6.01,1.74,14.71,1.74,14.71
			c-4.43-15.02-11.86-18.19-11.86-18.19l5.22,13.28l-8.22-8.86c1.74,3.6,3.27,7.3,4.59,11.07c-12.18-6.01-22.14-16.45-22.14-16.45
			c4.27,8.54,15.34,19.77,15.34,19.77c-8.37-5.74-16.13-12.32-23.17-19.64c7.88,13.5,28.41,27.87,28.41,27.87
			c-27.65-12.42-34.35-27.32-34.35-27.32c1.6,4.75,3.47,9.4,5.62,13.93l0.54,5.84l-18.4-23.31c1.54,10.74,6.55,20.68,14.28,28.29
			c-18.61-12.55-18.05-28.29-18.05-28.29l-0.98,7.66l-2.67-5.81c1.39,8.24,6.04,18.46,6.04,18.46l-11.26-9.17l4.85,7.2
			c-34.82-23.83-89.53-25.91-89.53-25.91c6.63,6.22,33.62,7.36,33.62,7.36c-46.38,6.53-79.71-18.21-79.71-18.21s2.75,2.4,15.8,13.4
			c8.29,6.77,18.06,11.48,28.52,13.74c-16.15,1.03-65.36-22.75-65.36-22.75l9.7,6.71c-57.59-22.1-29.23,148.4-21.46,147.93
			s22.22-13.33,22.22-13.33s-12.06,11.27-20.16,15.71s-6.98,10.64-6.98,10.64c5.72-4.76,14.29-5.56,14.29-5.56
			c-3.49,2.94-6.3,6.61-8.21,10.75l11.14-5.77c-11.22,6.64-13.56,15.18-13.56,15.18c1.36,19.7-2.99,33.51-2.99,33.51
			c0,13.81-2.25,43.7-2.25,43.7l-4.5-14.67l-0.87,12.49l-4.21-15.83l-1.6,12.2l-4.79-10.6l1.89,10.02l-9-22.29
			c0.29,8.78,5.08,23.17,5.08,23.17c-8.28-11.04-17.86-30.79-17.86-30.79l3.63,16.99c-8.42-19.02-12.95-43.29-12.95-43.29
			c0.6,33.24,16.32,74.64,20.85,82.54s14.94,16.73,20.15,18.47c3.77,1.07,7.69,1.46,11.59,1.16c4.64,6.57,8.31,25.31,9.08,34.97
			c0.55,6.04,2.18,11.93,4.83,17.39c2.13,42.11,13.72,45.01,30.91,64.33s29.78,39.27,67.67,77.17s65.43,49.26,103.59,49.86
			c38.15,0.6,58.42-29.81,58.42-29.81c19.08-15.2,42.92-47.69,63.19-86.44s20.87-85.25,20.87-85.25
			c14.01-46.2,25.2-98.23,22.76-124.47c-2.28-24.54-2.97-36.27-3.04-37.69c0.08,1.39,0.76,12.08,3.04,12.36
			c2.44,0.3-3.05-28.69-3.05-28.69c1.42,4.78,3.93,9.16,7.32,12.82c-0.37-34.05-4.39-67.97-12.01-101.17l3.7,5.06l-3.7-11.87
			c3.29,6.33,8.46,11.5,14.79,14.79c0.97-19.07-5.84-39.51-5.84-39.51C931.04,1376.03,935.13,1381.09,935.13,1381.09z
			 M539.49,1620.3c-2.03-3.52-10.17-9.49-12.74-17.08s1.09-14.5,1.09-14.5c0.27,2.71,5.15,9.49,8.54,15.79
			S539.49,1620.3,539.49,1620.3z"/>
		<path id="Path_1130" d="M506.11,1557.83c0,0,4.36,32.72-1.64,44.35l4.91,9.81c0,0,5.09-27.63,2-47.62L506.11,1557.83z"/>
		<g id="Group_142" transform="translate(492.405 1327.009)">
			<path id="Path_1131" class="st9" d="M197.67,260.72c8.44-3.89,12.14-4.74,12.33-5.63c0.18-0.86-0.27-0.54-6.03-3.75
				s-7.85-8.64-11.08-11.65s-12.15-4.31-23.1-3.1c-8.44,0.94-13.09-1.39-20.06-5.15s-15.95-2.13-29.08,1.09l12.87-6.43
				c0,0-12.87,2.41-19.03,0.8c0,0,20.37-8.58,41.55-2.95c0,0-1.88-14.47-14.74-13.14s-24.66,6.17-28.68-2.68s6.97-17.16,3.75-48.25
				c0,0,26.19-0.77,46.71,8.42s59.12,11.95,84.85,7.66c0,0-25.73,2.45-46.56-5.82s-42.27-25.12-68.01-25.73
				c0,0,21.91-2.63,32.66,2.89c15.37,7.89,58.43,0.76,70.04,0.38c0,0-33.88,0.76-50.06-2.67s-36.92-11.61-51.77-13.32l25.89-1.33
				c0,0-19.98-7.8-40.16-5.71c0,0-5.42-15.18-4.28-43.85s20.93-36.63,44.14-35.72s26.62-3.64,26.62-3.64s-13.42,1.36-15.7-3.87
				l36.53-0.01c0,0-3.31-3.83-7.31-5.05c0,0,11.06-0.23,20.15,4.25c-34.82-23.83-89.53-25.91-89.53-25.91
				c6.63,6.22,33.62,7.36,33.62,7.36C117.82,24.73,84.49-0.01,84.49-0.01s2.75,2.41,15.8,13.4c8.29,6.77,18.06,11.48,28.52,13.74
				C112.66,28.17,63.45,4.39,63.45,4.39l9.7,6.71C15.56-11,43.91,159.5,51.69,159.02s22.22-13.33,22.22-13.33
				s-12.06,11.27-20.16,15.71s-6.98,10.64-6.98,10.64c5.72-4.76,14.29-5.56,14.29-5.56c-3.49,2.94-6.3,6.61-8.21,10.75l11.14-5.77
				c-11.22,6.64-13.56,15.18-13.56,15.18c1.36,19.7-2.99,33.51-2.99,33.51c0,13.81-2.25,43.7-2.25,43.7l-4.5-14.67l-0.87,12.49
				l-4.21-15.83l-1.6,12.2l-4.79-10.6l1.89,10.02l-9-22.29c0.29,8.78,5.08,23.17,5.08,23.17c-8.28-11.04-17.86-30.79-17.86-30.79
				l3.63,16.99C4.53,225.52,0,201.25,0,201.25c0.6,33.24,16.32,74.64,20.85,82.54s14.94,16.73,20.15,18.47
				c3.77,1.07,7.69,1.46,11.59,1.16c4.64,6.57,8.31,25.31,9.08,34.97c0.55,6.04,2.18,11.93,4.83,17.39
				c2.13,42.11,13.72,45.01,30.91,64.33s29.78,39.27,67.67,77.17s65.43,49.26,103.59,49.86s58.42-29.81,58.42-29.81
				s-17.28,27.04-63.74,22.98s-70.66-22.65-81.87-37.89s-32.98-65.74-32.98-65.74l4.2,17.47c0,0-7.74-9.07-9.07-19.46
				s-4.98-57.07-42.72-100.1l4.7,2.64c0,0-16.05-22.09-22.27-41.08c0,0,11.22,14.84,15.19,19.85c0,0-15.19-26.23-21.06-44.53
				l4.32,5.01c0,0-11.22-31.93-3.8-38.32s6.56,12.43,31.07,10.53c-2.23,1.63-4.85,2.65-7.59,2.93c0,0,9.32,2.42,16.05,0
				c0,0-9.48,31.32,32.34,41.5c0,0,28.68,16.08,47.98-12.06c0,0-17.69,4.83-30.29,2.68c0,0,9.65-2.41,14.47-8.31
				c-12.8,3.61-26.52-0.58-35.12-10.72c5.91,2.63,12.3,4,18.77,4.02C189.76,268.22,189.22,264.6,197.67,260.72z M47.08,293.29
				c-2.03-3.52-10.17-9.49-12.74-17.08s1.09-14.5,1.09-14.5c0.27,2.71,5.15,9.49,8.54,15.79S47.08,293.29,47.08,293.29L47.08,293.29
				z"/>
			<path id="Path_1132" class="st9" d="M220.22,251.96c0,0,11.93,12.47,13.01,28.91s0.72,21.5,0,30.54s-10.3,15.72-10.3,15.72
				s5.24-0.24,6.91,2.26c0,0-6.91-0.24-10.61,5.6c0,0,10.29-0.6,14.68,5.48s1.53,11.8,3.44,19.78c0,0-11.25,1.51-18.61-5.69
				s-4.2-13.38-4.2-13.38l-2.69,1.19c0,0,1.43-5.94,4.04-8.71c0,0-10.93,4.97-11.3,19.04s11.38,24.95,20.53,23.97
				s27.2,6.23,27.2,6.23s0.89-2.95,0-5.01c0,0,8.6,9.24,24.31,5.01s19.41-15.23,19.41-15.23s21.52-1.2,18.41-22.42
				c0,0-3.3,11.81-14.31,14.41c0,0,2.6-15.71-5.1-29.42c0,0,1.3,25.32-2.2,34.93s-17.61,11.74-25.92,7.12s-16.68-6.67-15.73-31.88
				s-3.09-28.93-3.09-28.93l-0.32,25.84c0,0-2.58-7.1-2.58-22.12s-4.36-21.48-3.55-40.05s-0.15-22.31,5.01-23.19
				s17.16-3.24,20.52-7.95c0,0-16.48-1.68-19.62-0.56s-5.27,5.5-5.27,5.5s-1.12-5.72-4.93-9.31c0,0,5.61-6.62-3.03-18.39
				c0,0,0.34,11.21-1.57,12.67s-23.14-1.76-23.14-1.76l10.3,4.7c0,0-7.5,3.43-15.32,2.29C210.47,242.52,215.75,246.85,220.22,251.96
				z"/>
			<path id="Path_1133" class="st9" d="M302.74,466.75c-10.26-4.98-21.77-6.81-33.07-5.26c-18.29,2.76-28.81,5.69-39.58,2.34
				c0,0,6.17,10.98,17.75,9.97c0,0,0.43,3.48-10.28,4.2c0,0,3.48,4.06,14.48,4.35c0,0-0.35-3.73-2.79-5.7c0,0,3.32,0.83,5.69,5.7
				c0,0,2.71,1.34,11.79-0.35s11.45-6.57,16.25-6.84c-2.71-1.4-5.81-1.86-8.8-1.29c0,0,2.72-1.96,12.75-2.51
				S302.74,466.75,302.74,466.75z"/>
			<path id="Path_1134" class="st9" d="M194.62,419.79c16.93-3.35,42.92-0.17,72.75-0.84s77.28-9.56,64.71-7.88
				s-15.76-3.02-33.53-3.85s-20.62,6.7-37.21,4.02s-36.06-1.11-45.6,1.17c-9.23,2.21-13.52,2.98-30.05,5.97l9.43,0.29L194.62,419.79
				z"/>
			<path id="Path_1135" class="st9" d="M355.63,265.18c-11.72,5.34-39.61-3.73-55.12,1.43c0,0,6.68,6.42,19.17,19.64
				s35.58,6.39,41.24,0c0,0-25.85,8.36-34.56-3.16c2.22,0.19,4.46,0.19,6.68,0c0,0-4.21-2.94-4.36-5.85c0,0,19.46,6.54,33.11-5.37
				s19.78-28.56,19.78-28.56l-0.32,0.04c43.96-5.98,31.75-44.54,31.75-44.54l-1.92,2.88c0.48-8.65-2.4-21.04-2.4-21.04
				c-2.02,5.5-2.96,11.34-2.79,17.2l-0.94-2.19c-1.3,28.34-23.8,29.79-30.76,29.79s-14.41,3.24-14.41,3.24l6.48-7.45
				c-8.58,6.64-31.25,9.07-31.25,9.07c9.07-5.18,9.55-15.54,9.55-15.54c-3.87,3.17-8.43,5.38-13.31,6.47l5.01-6.47
				c-8.71,6.32-10.02,4.29-18.72,8.35c-5.45,2.64-10.25,6.46-14.06,11.17c1.29-13.28-7.93-16.17-7.93-16.17s4.18,21.64-8.25,20.03
				s-16.17,2.46-16.17,2.46s7.28-1.61,11.57,1.07c2.82,1.63,6.07,2.38,9.32,2.14l-2.84,5.31c-2.31-4.31-8.47-4.31-8.47-4.31
				c5.24,1.85,6.92,7.55,6.92,7.55c-9.26,12.48,0,30.72,0,30.72c-0.41-5.92,2.15-12.53,2.15-12.53l4.21,4.36
				c0,0-2.32-12.64-1.45-18.01s22.24-13.8,22.24-13.8s-11.64,6.82-11.64,9.15c0.08,0.75,0.52,1.41,1.18,1.77
				c0.02,0.27,0.4,0.52,1.35,0.71l0,0c1.38,0.52,2.83,0.83,4.31,0.92c5.89,1.34,14.88,3.63,23.73,6.44
				c7.98,2.54,20.42,0.7,30.66-5.3C364.35,256.8,361.05,262.71,355.63,265.18z"/>
			<path id="Path_1136" class="st9" d="M437.94,167.75c-1.11-29.96-5.04-59.74-11.75-88.96c0,0,4.54,28.72-3.9,41.85V98.62
				c0,0-3.28,18.75-5.39,27.42s-13.01,24.23-11.72,43.58c0,0,2.34-7.5,5.86-10.54c0,0-2.31,7.19-1.64,18.04
				c0.49-4.41,1.54-8.75,3.12-12.9c0,0,0,10.39,1.35,16.44c0.79,3.48,1.39,7,1.8,10.54c2.81-6.41,4.48-13.25,4.94-20.23
				c0.75-11.54,6.15-22.93,6.15-22.93L437.94,167.75z M47.08,293.29c-2.03-3.52-10.17-9.49-12.74-17.08s1.09-14.5,1.09-14.5
				c0.27,2.71,5.15,9.49,8.54,15.79S47.08,293.29,47.08,293.29z"/>
		</g>
	</g>
	<g id="Union_2" transform="translate(-11387.984 4057.637)">
		<path class="st24" d="M12154.67-2645.98c-76.44-0.8-136.66-54.66-225.73-91.17c-57.24-23.46-87.71-12.51-117.52-1.55
			c-28.4,10.44-56.21,20.87-106.01,1.55c-157.35-61.04-189.77-100.61-213.5-160.71s-58.5-110.18-61.77-147.14s-2.43-72.47,0-94.53
			s10.51-69.9,49.31-99.09s94.67-51.96,140.58-61.92c29.67-6.67,58.88-15.25,87.45-25.7l0.06-0.02
			c17.63-6.67,33.08-13.09,43.29-18.83l0.14-0.08l0.1-0.06l0.28-0.16c25.62-14.59,56.64-25.41,56.64-25.41
			c2.5-16.45,17.08-21.66,25.41-30.2s0.83-22.5,11.04-37.49c8.15-11.97,27.4-17.38,34.84-19.08c-0.57-3.52-1.02-7.44-1.35-11.82
			c-1.16-0.92-2.18-2.01-3.01-3.24c0,0-12.22,1.55-20.94-7.95c0,0,5.82,13.96,18.04,19.97c-15.38-2.48-28.09-13.33-32.97-28.12
			c-8.92-25.59-5.82-32.38-13.19-41.3c0,0,0,22.49,9.12,41.88c0,0-13.38-10.67-15.9-34.13c-8.45-4.78-15.18-12.09-19.27-20.89
			c-3.95,4.49-8.93,8.95-14.66,11.5c4.76-4.71,9.16-9.76,13.17-15.12c-2.27-6.44-3.2-13.27-2.71-20.08c0,0-11.65,3.89-17.57-10.96
			c-5.88-1.58-10.6-5.97-12.59-11.73c0,0,5.17,4.62,11.73,4.52c0,0-1.62-6.35,2.04-11.62c0,0-2.26-15.17-18.94-15.17
			s-7.21,29.48-7.21,29.48s-16.07-19.91-1.5-50.5c0,0-22.37,30.59,0.87,60.46c0,0-17.75-14.72-16.59-36.07s14.14-29.58,14.14-29.58
			s-5.63-20.92,13.42-31.89l-0.72-6.35l-1.58,5.34c0,0-6.64-31.02,6.92-45.74c0,0-0.36-9.9,2.8-17.37s9.96-64.05,25.8-88.27
			s34.05-63.3,34.05-63.3l-33.63,56.98c0,0-0.52-8.19,28.4-59.94c0,0-0.52-9.06,1.92-14.29c0,0-9.29,13.31-12.89,27.36
			c0,0,5.92-33.28,25.79-48.62c0,0,32.91-42.71,77.24-56.91c0,0,16.41-23.72,39.76-21.31c0,0,15.88-15.61,40.69,12.27
			c0,0,16.14-24.15,38.96-27.08s33.76,8.27,33.76,8.27s18.14-12.81,51.63,3.34c0,0,20.41-2.27,36.69,4.67
			c0,0,16.68-6.94,30.15,13.34c0,0,4.53-2.67,12.01,15.21s7.07,23.35,20.81,36.02s12.01,22.28,25.62,40.43s17.88,25.88,17.88,25.88
			l-5.47-11.34c0,0,15.48,24.42,22.55,32.42s22.01,32.02,28.42,48.57s18.09,56.09,19.58,76.95s-4.47,23.42-1.28,34.06
			s2.46,23.81,2.46,23.81c1.92,2.36,3.02,5.28,3.13,8.32c0,0,14.35,10.37,13.75,24.24s-6.4,21.71-6.4,21.71s1.93,5.91-4.1,11.33
			s-14.72,3.14-26.17,1.93c-4.93-0.52-8.61,1.17-12.08,2.86c-4.59,2.24-8.8,4.48-15.05,1.6c0,0,6.15,33.16-22.67,43.41
			c0,0,12.18-14.83,12.3-27.5c0,0-2.66,9.41-14.35,16.4c0,0,3.13,26.53-17.85,29.54c7.22-4.11,12.22-11.23,13.63-19.42
			c-3,4.94-7.47,8.82-12.79,11.1c0,0,9.17-13.51,8.32-35.22c0,0-5.79,28.34-13.63,42.57l3.74-30.39l-0.24,0.34
			c-4.17,24.04-11.16,51.86-19.04,77.84c-0.63,16.77-3.12,33.43-7.4,49.66c18.6,8.12,16.14,30.51,18.56,44.6s-0.24,18.71,3.64,34.75
			s20.41,19.68,42.03,32.07s90.62,29.4,124.39,47.62s54.45,13.03,89.9,37.89s28.55,78.79,24.68,148.63s-110.5,74.28-125.38,149.89
			c-28.78,83.2-27.89,45.45-95,141.03c-52.73,75.11-20.17,152.75-140.02,152.74C12156.69-2645.96,12155.67-2645.97,12154.67-2645.98
			z M12204.81-3406.6c5.28-10.48,9.34-25.85,9.96-28.25C12212.24-3425.18,12208.91-3415.72,12204.81-3406.6L12204.81-3406.6z
			 M11818.29-3525.52l-0.43-11.95c0,0-10.12-14.95-14.53-30.34l2.27,9.42l-1.02,1.95l-5.34-10.43
			C11799.25-3566.86,11800.11-3550.16,11818.29-3525.52z M12262.18-3574.21v9.04c0,0,4.27-5.02,3.77-14.07L12262.18-3574.21z"/>
		<path class="st5" d="M12157.69-2645.96c119.82,0,87.27-77.63,140-152.74c67.11-95.58,66.22-57.83,95-141.03
			c14.87-75.61,121.5-80.05,125.38-149.89c3.88-69.84,10.78-123.77-24.68-148.63c-35.45-24.86-56.13-19.66-89.9-37.89
			c-33.77-18.22-102.77-35.23-124.39-47.62c-21.62-12.39-38.14-16.04-42.03-32.07c-3.89-16.04-1.21-20.65-3.64-34.74
			c-2.43-14.09,0.04-36.48-18.56-44.6c7.1-26.92,7.4-49.66,7.4-49.66c7.88-25.98,14.86-53.8,19.04-77.84l0.24-0.34l-3.74,30.39
			c7.84-14.23,13.63-42.57,13.63-42.57c0.84,21.71-8.32,35.22-8.32,35.22c9.05-3.98,12.79-11.1,12.79-11.1
			c-2.53,13.99-13.63,19.42-13.63,19.42c20.98-3.02,17.85-29.54,17.85-29.54c11.7-7,14.35-16.4,14.35-16.4
			c-0.12,12.67-12.3,27.5-12.3,27.5c28.82-10.25,22.67-43.41,22.67-43.41c2.12,0.98,4,1.37,5.75,1.37c3.4,0,6.27-1.48,9.31-2.96
			c3.03-1.48,6.23-2.96,10.28-2.96c0.58,0,1.18,0.03,1.8,0.1c5.88,0.62,11.03,1.52,15.47,1.52c4.21,0,7.77-0.81,10.7-3.45
			c6.03-5.43,4.1-11.34,4.1-11.34s5.79-7.84,6.4-21.71c0.6-13.87-13.75-24.24-13.75-24.24c-0.12-4.95-3.13-8.32-3.13-8.32
			s0.74-13.16-2.46-23.81c-3.19-10.64,2.77-13.2,1.28-34.06c-1.49-20.86-13.18-60.41-19.58-76.95
			c-6.41-16.55-21.35-40.56-28.42-48.57c-7.07-8-22.55-32.42-22.55-32.42l5.47,11.34c0,0-4.27-7.74-17.88-25.88
			c-13.61-18.15-11.87-27.75-25.62-40.43c-13.74-12.67-13.34-18.15-20.81-36.02c-5.76-13.77-9.77-15.35-11.31-15.35
			c-0.46,0-0.7,0.14-0.7,0.14c-8-12.04-17.13-14.49-23.23-14.49c-4.17,0-6.93,1.15-6.93,1.15c-9.84-4.2-21.19-5.02-28.63-5.02
			c-4.87,0-8.06,0.36-8.06,0.36c-12.95-6.24-23.6-8.16-31.8-8.16c-13.01,0-19.84,4.82-19.84,4.82s-8.55-8.76-26.31-8.76
			c-2.32,0-4.81,0.15-7.45,0.49c-22.82,2.94-38.96,27.08-38.96,27.08c-11.71-13.16-21.43-16.63-28.43-16.63
			c-7.84,0-12.27,4.36-12.27,4.36c-1.13-0.12-2.24-0.17-3.33-0.17c-21.57,0-36.43,21.48-36.43,21.48
			c-44.34,14.2-77.24,56.91-77.24,56.91c-19.87,15.33-25.79,48.62-25.79,48.62c3.6-14.05,12.89-27.36,12.89-27.36
			c-2.44,5.23-1.92,14.29-1.92,14.29c-28.92,51.76-28.4,59.94-28.4,59.94l33.63-56.98c0,0-18.21,39.08-34.05,63.3
			c-15.84,24.22-22.64,80.8-25.8,88.27c-3.17,7.47-2.8,17.37-2.8,17.37c-13.56,14.72-6.92,45.74-6.92,45.74l1.58-5.34l0.72,6.35
			c-19.05,10.96-13.42,31.89-13.42,31.89s-12.99,8.23-14.14,29.58c-1.15,21.36,16.59,36.07,16.59,36.07
			c-23.23-29.87-0.87-60.46-0.87-60.46c-14.57,30.59,1.5,50.5,1.5,50.5s-9.47-29.48,7.21-29.48s18.94,15.17,18.94,15.17
			c-3.66,5.27-2.04,11.62-2.04,11.62c-0.08,0-0.15,0-0.22,0c-6.46,0-11.51-4.52-11.51-4.52c3.23,9.68,12.59,11.73,12.59,11.73
			c3.88,9.74,10.23,11.42,14.14,11.42c2.05,0,3.43-0.46,3.43-0.46c-0.47,7.82,0.69,14.48,2.71,20.08
			c-6.37,8.57-13.17,15.12-13.17,15.12c5.73-2.55,10.71-7.01,14.66-11.5c6.8,14.71,19.27,20.89,19.27,20.89
			c2.52,23.46,15.9,34.13,15.9,34.13c-9.12-19.39-9.12-41.88-9.12-41.88c7.37,8.92,4.27,15.71,13.19,41.3
			c8.92,25.6,32.97,28.12,32.97,28.12c-12.22-6.01-18.04-19.97-18.04-19.97c6.58,7.16,15.15,8.05,18.96,8.05
			c1.24,0,1.98-0.09,1.98-0.09c0.87,1.3,1.93,2.37,3.01,3.24c0.33,4.38,0.79,8.3,1.35,11.82c-7.44,1.7-26.69,7.11-34.84,19.08
			c-10.21,15-2.71,28.95-11.04,37.49c-8.33,8.54-22.91,13.75-25.41,30.2c0,0-31.01,10.82-56.64,25.41c-0.09,0.05-0.18,0.1-0.28,0.16
			c-0.03,0.02-0.07,0.04-0.1,0.06c-0.05,0.03-0.1,0.05-0.14,0.08c-10.21,5.74-25.66,12.16-43.29,18.83
			c-0.02,0.01-0.04,0.02-0.06,0.02c-27.2,9.98-59.84,19.7-87.45,25.7c-45.91,9.96-101.79,32.74-140.58,61.92
			c-38.79,29.18-46.87,77.03-49.31,99.09c-2.43,22.05-3.27,57.56,0,94.53c3.27,36.96,38.04,87.04,61.77,147.14
			c23.72,60.1,56.14,99.66,213.5,160.71c20.3,7.88,36.95,10.81,51.48,10.81c21.1,0,37.71-6.18,54.53-12.36
			c16.82-6.18,33.85-12.36,55.78-12.36c16.94,0,36.8,3.69,61.75,13.91c89.07,36.51,149.29,90.36,225.73,91.17
			c1,0.01,2.01,0.02,2.99,0.02C12157.67-2645.96,12157.68-2645.96,12157.69-2645.96 M12214.77-3434.86
			c-0.62,2.4-4.68,17.77-9.96,28.25C12209.1-3416.01,12212.33-3425.67,12214.77-3434.86 M11799.25-3566.86l5.34,10.43l1.02-1.95
			l-2.27-9.42c4.41,15.39,14.53,30.34,14.53,30.34l0.43,11.95C11800.11-3550.16,11799.25-3566.86,11799.25-3566.86
			 M12265.95-3579.24c0.5,9.05-3.77,14.07-3.77,14.07v-9.04L12265.95-3579.24 M12157.69-2605.96h-0.02l-3.41-0.02
			c-59.75-0.63-108.46-26.83-160.02-54.58c-25.3-13.61-51.47-27.69-80.46-39.57c-17.93-7.35-33.17-10.93-46.57-10.93
			c-15.02,0-27.51,4.59-41.98,9.91c-19.15,7.04-40.32,14.81-68.33,14.81c-20.93,0-42.5-4.42-65.95-13.52
			c-164.55-63.84-207.28-109.97-236.23-183.31c-8.65-21.9-18.98-42.59-28.97-62.6c-17.59-35.23-32.78-65.65-35.44-95.7
			c-3.12-35.32-3.09-73.62,0.09-102.43c7.73-70.09,39.62-107.57,65.02-126.67c40.52-30.48,100.35-56.94,156.14-69.05
			c24.97-5.42,55.69-14.45,82.16-24.16c17.66-6.68,30.39-12.15,37.53-16.17c16.16-9.2,33.75-16.92,46.34-22.02
			c6.47-10.5,14.82-17.48,21.07-22.27c0.8-8.45,2.86-20.6,10.54-33.32c-4.79-4.04-18.99-17.62-26.21-41.97
			c-6.78-6.34-14.06-15.15-19.47-26.83l8.58-3.97c-2.77-1.14-5.43-2.51-7.97-4.1l-3.42,1.23c-0.57-1.57-1.09-3.16-1.56-4.76
			c-3.47-2.76-6.64-5.98-9.46-9.6c-3.08-2.12-6.08-4.61-8.88-7.49l-13.88,13.45c-3.4-2.82-33.18-28.73-31-69.02
			c0.93-17.29,6.44-31.47,13.69-42.24c1.11-9.83,4.29-19.87,10.01-29c-0.62-13.58,0.74-31.74,9.19-47.91
			c0.7-5.36,1.99-11.54,4.31-17.66c0.59-2.42,1.26-6.07,2.13-10.49c5.31-27.01,11.4-54.83,22.11-76.14
			c1.09-8.59,5.42-21.55,19.19-48.15l-1.45-0.31c1.37-7.71,9.36-45.8,36.51-69.78c9.84-11.85,40.32-45.47,82.46-62.72
			c10.23-10.49,28.25-24.68,52.55-27.13c6.2-2.59,13.88-4.55,22.92-4.55c6.75,0,15.13,1.15,24.4,4.92
			c10.24-7.08,22.95-13.12,37.88-15.05c4.22-0.54,8.44-0.82,12.56-0.82c12.12,0,22.23,2.27,30.38,5.36
			c4.71-0.87,9.98-1.41,15.76-1.41c12.77,0,25.94,2.62,39.25,7.8c0.2,0,0.4,0,0.61,0c8.48,0,20.02,0.79,31.93,3.98
			c1.17-0.07,2.38-0.1,3.63-0.1c18.05,0,35.01,7.74,48.06,21.63c9.67,6.53,17.72,17.43,24.08,32.64c1.82,4.36,3.23,8.06,4.47,11.33
			c2.73,7.19,2.73,7.19,6.55,10.72c13.34,12.3,18.86,24,22.88,32.54c2.31,4.9,3.98,8.45,7.62,13.29
			c5.52,7.36,9.71,13.26,12.85,17.87l1.34-0.74c7.29,11.49,16.05,24.27,18.75,27.36c10.33,11.7,27.8,40.1,35.74,60.61
			c6.78,17.52,20.25,61.48,22.18,88.54c0.97,13.62-0.26,22.65-1.64,29.96c1.61,6.73,2.39,13.42,2.74,19.03
			c8.65,10.07,17.91,25.71,17.03,46.02c-0.55,12.57-3.53,22.76-6.69,30.24c-1.62,10.41-6.63,21.47-17,30.8
			c-10.12,9.11-22.73,13.73-37.47,13.73c-2.38,0-4.68-0.12-6.88-0.3c-5.4,14.83-15.37,28.44-30.84,37.7
			c-5.31,8.47-12.63,15.71-21.98,20.66c-1.8,6.7-3.71,13.46-5.72,20.22c-0.35,6.26-1.22,16.68-3.35,29.35
			c10.87,16.37,12.59,35.17,13.51,45.25c0.2,2.21,0.35,4.32,0.67,6.2c1.57,9.13,1.71,15.86,1.81,20.78c0.04,2.22,0.08,3.85,0.24,5.5
			c2.2,1.18,4.89,2.53,7.11,3.65c5.22,2.62,10.92,5.5,16.99,8.98c6.56,3.76,27.92,10.88,45.09,16.61
			c28.14,9.38,57.23,19.09,78.41,30.52c10.81,5.83,19.62,8.37,30.78,11.59c16.7,4.81,37.49,10.8,63.08,28.75
			c50.6,35.47,46.77,98.61,42.72,165.45l-1.07,18.14c-3.06,55.12-43.98,82.34-76.85,104.21c-27.92,18.57-45.24,30.98-49.21,51.19
			l-1.45,5.36c-18.24,52.72-27.41,65.3-48.99,87.84c-10.7,11.17-25.36,26.48-51.07,63.1c-13.79,19.64-20.69,40.67-27.36,61.01
			C12287.18-2666.25,12267.4-2605.96,12157.69-2605.96z"/>
	</g>
</g>
</svg>
