<?xml version="1.0" encoding="utf-8"?>
<!-- Generator: Adobe Illustrator 24.0.1, SVG Export Plug-In . SVG Version: 6.00 Build 0)  -->
<svg version="1.1" id="Layer_1" xmlns="http://www.w3.org/2000/svg" xmlns:xlink="http://www.w3.org/1999/xlink" x="0px" y="0px"
	 viewBox="0 0 505.04 558.1" style="enable-background:new 0 0 505.04 558.1;" xml:space="preserve">
<style type="text/css">
	.st0{fill:#020100;}
	.st1{fill:#FFFFFF;}
	.st2{fill:#000649;}
	.st3{fill:#604C53;}
	.st4{fill:#80B0A6;}
	.st5{fill:#FAD000;}
	.st6{fill:#FF6E53;}
	.st7{fill:#EC3D2B;}
	.st8{fill:#A12133;}
	.st9{fill:#F9B200;}
	.st10{fill:#F7BC00;}
	.st11{fill:url(#SVGID_4_);}
	.st12{clip-path:url(#SVGID_6_);}
	.st13{clip-path:url(#SVGID_8_);}
	.st14{fill:#F9C900;}
	.st15{clip-path:url(#SVGID_9_);}
	.st16{clip-path:url(#SVGID_10_);}
	.st17{clip-path:url(#SVGID_11_);}
	.st18{fill:#C4C2C2;}
	.st19{fill:none;stroke:#C4C2C2;stroke-width:60;stroke-miterlimit:10;}
</style>
<g>
	<polygon class="st8" points="205.75,450.91 252.52,477.91 299.28,450.91 299.28,396.91 252.52,369.91 205.75,396.91 	"/>
	<polygon class="st8" points="170.09,250.74 123.33,223.74 76.57,250.74 76.57,304.74 123.33,331.74 170.09,304.74 	"/>
	<polygon class="st8" points="428.47,250.74 381.71,223.74 334.94,250.74 334.94,304.74 381.71,331.74 428.47,304.74 	"/>
	<polygon class="st7" points="449.6,476.07 435.07,467.69 435.07,450.91 435.07,396.91 435.07,380.13 449.6,371.74 496.37,344.75 
		496.37,208.02 381.71,143.54 267.05,208.02 267.05,344.75 313.81,371.74 328.34,380.13 328.34,396.91 328.34,450.91 328.34,467.69 
		313.81,476.07 267.05,503.07 252.52,511.46 237.99,503.07 191.23,476.07 176.7,467.69 176.7,450.91 176.7,396.91 176.7,380.13 
		191.23,371.74 237.99,344.75 237.99,208.02 123.33,143.54 8.67,208.02 8.67,344.75 55.43,371.74 69.96,380.13 69.96,396.91 
		69.96,450.91 69.96,467.69 55.44,476.07 0,508.08 22.07,542.4 108.8,493.63 108.8,356.9 62.04,329.9 47.51,321.51 47.51,304.74 
		47.51,250.74 47.51,233.96 62.04,225.57 108.8,198.57 123.33,190.18 137.86,198.57 184.62,225.57 199.15,233.96 199.15,250.74 
		199.15,304.74 199.15,321.51 184.62,329.9 137.86,356.9 137.86,493.63 168.18,510.67 252.52,558.1 252.52,558.1 252.52,558.1 
		252.52,558.1 252.52,558.1 336.86,510.67 367.18,493.63 367.18,356.9 320.42,329.9 305.89,321.51 305.89,304.74 305.89,250.74 
		305.89,233.96 320.41,225.57 367.18,198.57 381.71,190.18 396.24,198.57 443,225.57 457.53,233.96 457.53,250.74 457.53,304.74 
		457.53,321.51 443,329.9 396.24,356.9 396.24,493.63 482.96,542.4 505.04,508.08 	"/>
	<path id="Path_2744" class="st8" d="M206.04,80.5l46.48,26.83l46.48-26.83V26.83L252.51,0l-46.48,26.83V80.5z"/>
</g>
</svg>
