<?xml version="1.0" encoding="utf-8"?>
<!-- Generator: Adobe Illustrator 24.0.1, SVG Export Plug-In . SVG Version: 6.00 Build 0)  -->
<svg version="1.1" xmlns="http://www.w3.org/2000/svg" xmlns:xlink="http://www.w3.org/1999/xlink" x="0px" y="0px"
	 viewBox="0 0 100.71 54.49" style="enable-background:new 0 0 100.71 54.49;" xml:space="preserve">
<style type="text/css">
	.st0{fill:none;stroke:#000000;stroke-width:1.1437;stroke-miterlimit:10;}
	.st1{fill:#FED763;}
	.st2{fill:#EFEEFE;}
	.st3{fill:none;stroke:#000000;stroke-width:30;stroke-miterlimit:10;}
	.st4{fill:none;stroke:#000000;stroke-width:30;stroke-linecap:round;stroke-miterlimit:10;}
	.st5{fill:#888CAF;}
	.st6{fill:#D0CDC4;}
	.st7{fill:none;stroke:#000000;stroke-linecap:round;stroke-miterlimit:10;}
	.st8{fill:#FE0000;}
	.st9{fill:#D3191F;}
	.st10{fill:#F2F2F2;}
	.st11{fill:#A12133;}
	.st12{fill:#EC3D2B;}
	.st13{fill:#3E4240;}
</style>
<g id="Layer_1">
</g>
<g id="Layer_2">
	<g id="Group_846_1_" transform="translate(-9474.283 -499.457) rotate(90)">
		<g id="Group_475_1_" transform="translate(560.598 -9574.978)">
			<path id="Path_2736_1_" class="st11" d="M-42.73,67.72l-5.01-2.9l-5.01,2.9v5.79l5.01,2.9l5.01-2.9V67.72z"/>
			<path id="Path_2737_1_" class="st11" d="M-38.91,48.95l5.01,2.9l5.01-2.9v-5.79l-5.01-2.89l-5.01,2.9V48.95z"/>
			<path id="Path_2744_1_" class="st11" d="M-38.91,8.67l5.01,2.9l5.01-2.9V2.88l-5.01-2.89l-5.01,2.9V8.67z"/>
			<path id="Path_2738_1_" class="st11" d="M-38.91,83.4v5.79l5.01,2.89l5.01-2.89V83.4l-5.01-2.9L-38.91,83.4z"/>
			<path id="Path_2739_1_" class="st11" d="M-42.73,27.49l-5.01-2.9l-5.01,2.9v5.79l5.01,2.9l5.01-2.9V27.49z"/>
			<path id="Path_2740_1_" class="st11" d="M-15.03,27.49l-5.01-2.9l-5.01,2.9v5.79l5.01,2.9l5.01-2.9V27.49z"/>
			<path id="Path_2741_1_" class="st11" d="M-15.03,67.72l-5.01-2.9l-5.01,2.9v5.79l5.01,2.9l5.01-2.9V67.72z"/>
		</g>
		<g id="Group_476_1_" transform="translate(552.218 -9558.969)">
			<path id="Path_2742_1_" class="st12" d="M-4.38,35.64l-1.56-0.9v-9.39l1.56-0.9l5.01-2.89V6.9l-12.29-6.91L-23.96,6.9v14.66
				l5.01,2.89l1.56,0.9v9.39l-1.56,0.9l-5.01,2.89l-1.56,0.9l-1.56-0.9l-5.01-2.89l-1.56-0.9v-9.39l1.56-0.9l5.01-2.89V6.9
				l-12.29-6.91L-51.66,6.9v14.66l5.01,2.89l1.56,0.9v9.39l-1.56,0.9l-5.94,3.43l2.37,3.68l9.3-5.23V22.86l-5.01-2.9l-1.56-0.9V9.67
				l1.56-0.9l5.01-2.9l1.56-0.9l1.56,0.9l5.01,2.9l1.56,0.9v9.39l-1.56,0.9l-5.01,2.9v14.66l3.25,1.83l9.04,5.09l0,0l9.04-5.09
				l3.25-1.83V22.86l-5.01-2.9l-1.56-0.9V9.67l1.56-0.9l5.01-2.9l1.56-0.9l1.56,0.9l5.01,2.9l1.56,0.9v9.39l-1.56,0.9l-5.01,2.9
				v14.66l9.3,5.23l2.37-3.68L-4.38,35.64z"/>
			<path id="Path_2743_1_" class="st12" d="M-4.38,75.88l-1.56-0.9v-9.39l1.56-0.9l5.01-2.9V47.14l-6.53-3.67l-5.77-3.24l-5.77,3.24
				l-6.53,3.67V61.8l5.01,2.9l1.56,0.9v9.39l-1.56,0.9l-5.01,2.9l-1.56,0.9l-1.56-0.9l-5.01-2.9l-1.56-0.9V65.6l1.56-0.9l5.01-2.9
				V47.14l-6.53-3.67l-5.77-3.24l-5.77,3.24l-6.53,3.67V61.8l5.01,2.9l1.56,0.9v9.39l-1.56,0.9l-6.11,3.53l2.37,3.68l9.47-5.32
				V63.11l-5.01-2.89l-1.56-0.9v-9.39l1.56-0.9l5.01-2.89l1.56-0.9l1.56,0.9l5.01,2.89l1.56,0.9v9.39l-1.56,0.9l-5.01,2.89v14.66
				l12.29,6.91l0,0l12.29-6.91V63.11l-5.01-2.89l-1.56-0.9v-9.39l1.56-0.9l5.01-2.89l1.56-0.9l1.56,0.9l5.01,2.89l1.56,0.9v9.39
				l-1.56,0.9l-5.01,2.89v14.66l9.47,5.32l2.37-3.68L-4.38,75.88z"/>
		</g>
	</g>
</g>
</svg>
