<?xml version="1.0" encoding="utf-8"?>
<!-- Generator: Adobe Illustrator 24.0.1, SVG Export Plug-In . SVG Version: 6.00 Build 0)  -->
<svg version="1.1" xmlns="http://www.w3.org/2000/svg" xmlns:xlink="http://www.w3.org/1999/xlink" x="0px" y="0px"
	 viewBox="0 0 1024 1366" style="enable-background:new 0 0 1024 1366;" xml:space="preserve">
<style type="text/css">
	.st0{display:none;opacity:0.7;}
	.st1{fill:#F9B200;}
	.st2{fill:#F79200;}
	.st3{fill:#FFD833;}
	.st4{fill:#D81A22;}
	.st5{fill:#F9F7DC;}
	.st6{fill:#A6221D;}
	.st7{fill:none;}
	.st8{clip-path:url(#SVGID_2_);}
	.st9{fill:#FACC00;}
	.st10{fill:#E4EDF7;}
	.st11{fill:#FAD000;}
</style>
<g id="Layer_1" class="st0">
</g>
<g id="Layer_2">
</g>
<g id="Layer_3">
</g>
<g id="Layer_4">
	<rect class="st7" width="1024" height="1366"/>
</g>
<g id="Layer_5">
	<g id="Mask_Group_37">
		<g id="Group_114" transform="translate(-67.576 -512.242)">
			<g id="Group_112" transform="translate(44.378 16.629)">
				<path id="Path_376" class="st11" d="M128.05,1573.56v26.76l23.18,13.38l23.18-13.38v-26.76l-23.18-13.38L128.05,1573.56z"/>
				<path id="Path_377" class="st11" d="M0,1573.56v26.76l23.18,13.38l23.18-13.38v-26.76l-23.18-13.38L0,1573.56z"/>
				<path id="Path_378" class="st11" d="M384.15,1573.56v26.76l23.18,13.38l23.18-13.38v-26.76l-23.18-13.38L384.15,1573.56z"/>
				<path id="Path_379" class="st11" d="M128.05,1387.6v26.76l23.18,13.38l23.18-13.38v-26.76l-23.18-13.38L128.05,1387.6z"/>
				<path id="Path_380" class="st11" d="M0,1387.6v26.76l23.18,13.38l23.18-13.38v-26.76l-23.18-13.38L0,1387.6z"/>
				<path id="Path_381" class="st11" d="M256.1,1387.6v26.76l23.18,13.38l23.18-13.38v-26.76l-23.18-13.38L256.1,1387.6z"/>
				<path id="Path_382" class="st11" d="M384.15,1387.6v26.76l23.18,13.38l23.18-13.38v-26.76l-23.18-13.38L384.15,1387.6z"/>
				<path id="Path_383" class="st11" d="M494.52,1341.92v-26.76l-23.18-13.38l-23.18,13.38v26.76l23.18,13.38L494.52,1341.92z"/>
				<path id="Path_384" class="st11" d="M366.47,1341.92v-26.76l-23.18-13.38l-23.18,13.38v26.76l23.18,13.38L366.47,1341.92z"/>
				<path id="Path_385" class="st11" d="M238.42,1341.92v-26.76l-23.18-13.38l-23.18,13.38v26.76l23.18,13.38L238.42,1341.92z"/>
				<path id="Path_386" class="st11" d="M110.38,1341.92v-26.76l-23.18-13.38l-23.18,13.38v26.76l23.18,13.38L110.38,1341.92z"/>
				<path id="Path_387" class="st11" d="M494.52,1155.95v-26.76l-23.18-13.38l-23.18,13.38v26.76l23.18,13.38L494.52,1155.95z"/>
				<path id="Path_388" class="st11" d="M366.47,1155.95v-26.76l-23.18-13.38l-23.18,13.38v26.76l23.18,13.38L366.47,1155.95z"/>
				<path id="Path_389" class="st11" d="M110.38,1155.95v-26.76l-23.18-13.38l-23.18,13.38v26.76l23.18,13.38L110.38,1155.95z"/>
				<path id="Path_390" class="st11" d="M128.05,1759.53v26.76l23.18,13.38l23.18-13.38v-26.76l-23.18-13.38L128.05,1759.53z"/>
				<path id="Path_391" class="st11" d="M0,1759.53v26.76l23.18,13.38l23.18-13.38v-26.76l-23.18-13.38L0,1759.53z"/>
				<path id="Path_392" class="st11" d="M256.1,1759.53v26.76l23.18,13.38l23.18-13.38v-26.76l-23.18-13.38L256.1,1759.53z"/>
				<path id="Path_393" class="st11" d="M384.15,1759.53v26.76l23.18,13.38l23.18-13.38v-26.76l-23.18-13.38L384.15,1759.53z"/>
				<path id="Path_394" class="st11" d="M494.52,1527.88v-26.76l-23.18-13.38l-23.18,13.38v26.76l23.18,13.38L494.52,1527.88z"/>
				<path id="Path_395" class="st11" d="M366.47,1527.88v-26.76l-23.18-13.38l-23.18,13.38v26.76l23.18,13.38L366.47,1527.88z"/>
				<path id="Path_396" class="st11" d="M238.42,1527.88v-26.76l-23.18-13.38l-23.18,13.38v26.76l23.18,13.38L238.42,1527.88z"/>
				<path id="Path_397" class="st11" d="M110.38,1527.88v-26.76l-23.18-13.38l-23.18,13.38v26.76l23.18,13.38L110.38,1527.88z"/>
				<path id="Path_405" class="st11" d="M494.52,1899.82v-26.76l-23.18-13.38l-23.18,13.38v26.76l23.18,13.38L494.52,1899.82z"/>
				<path id="Path_406" class="st11" d="M366.47,1899.82v-26.76l-23.18-13.38l-23.18,13.38v26.76l23.18,13.38L366.47,1899.82z"/>
				<path id="Path_407" class="st11" d="M110.38,1899.82v-26.76l-23.18-13.38l-23.18,13.38v26.76l23.18,13.38L110.38,1899.82z"/>
				<path id="Path_408" class="st11" d="M494.52,1713.85v-26.76l-23.18-13.38l-23.18,13.38v26.76l23.18,13.38L494.52,1713.85z"/>
				<path id="Path_409" class="st11" d="M366.47,1713.85v-26.76l-23.18-13.38l-23.18,13.38v26.76l23.18,13.38L366.47,1713.85z"/>
				<path id="Path_410" class="st11" d="M238.42,1713.85v-26.76l-23.18-13.38l-23.18,13.38v26.76l23.18,13.38L238.42,1713.85z"/>
				<path id="Path_411" class="st11" d="M110.38,1713.85v-26.76l-23.18-13.38l-23.18,13.38v26.76l23.18,13.38L110.38,1713.85z"/>
				<path id="Path_420" class="st11" d="M128.05,457.76v26.76l23.18,13.38l23.18-13.38v-26.76l-23.18-13.38L128.05,457.76z"/>
				<path id="Path_421" class="st11" d="M0,457.76v26.76l23.18,13.38l23.18-13.38v-26.76l-23.18-13.38L0,457.76z"/>
				<path id="Path_422" class="st11" d="M256.1,457.76v26.76l23.18,13.38l23.18-13.38v-26.76l-23.18-13.38L256.1,457.76z"/>
				<path id="Path_423" class="st11" d="M384.15,457.76v26.76l23.18,13.38l23.18-13.38v-26.76l-23.18-13.38L384.15,457.76z"/>
				<path id="Path_436" class="st11" d="M128.05,643.72v26.76l23.18,13.38l23.18-13.38v-26.76l-23.18-13.38L128.05,643.72z"/>
				<path id="Path_437" class="st11" d="M0,643.72v26.76l23.18,13.38l23.18-13.38v-26.76l-23.18-13.38L0,643.72z"/>
				<path id="Path_438" class="st11" d="M256.1,643.72v26.76l23.18,13.38l23.18-13.38v-26.76l-23.18-13.38L256.1,643.72z"/>
				<path id="Path_439" class="st11" d="M384.15,643.72v26.76l23.18,13.38l23.18-13.38v-26.76l-23.18-13.38L384.15,643.72z"/>
				<path id="Path_444" class="st11" d="M128.05,1015.66v26.76l23.18,13.38l23.18-13.38v-26.76l-23.18-13.38L128.05,1015.66z"/>
				<path id="Path_445" class="st11" d="M0,1015.66v26.76l23.18,13.38l23.18-13.38v-26.76l-23.18-13.38L0,1015.66z"/>
				<path id="Path_446" class="st11" d="M256.1,1015.66v26.76l23.18,13.38l23.18-13.38v-26.76l-23.18-13.38L256.1,1015.66z"/>
				<path id="Path_447" class="st11" d="M384.15,1015.66v26.76l23.18,13.38l23.18-13.38v-26.76l-23.18-13.38L384.15,1015.66z"/>
				<path id="Path_448" class="st11" d="M128.05,829.69v26.76l23.18,13.38l23.18-13.38v-26.76l-23.18-13.38L128.05,829.69z"/>
				<path id="Path_449" class="st11" d="M0,829.69v26.76l23.18,13.38l23.18-13.38v-26.76l-23.18-13.38L0,829.69z"/>
				<path id="Path_450" class="st11" d="M256.1,829.69v26.76l23.18,13.38l23.18-13.38v-26.76l-23.18-13.38L256.1,829.69z"/>
				<path id="Path_451" class="st11" d="M384.15,829.69v26.76l23.18,13.38l23.18-13.38v-26.76l-23.18-13.38L384.15,829.69z"/>
				<path id="Path_452" class="st11" d="M494.52,784.01v-26.76l-23.18-13.38l-23.18,13.38v26.76l23.18,13.38L494.52,784.01z"/>
				<path id="Path_453" class="st11" d="M366.47,784.01v-26.76l-23.18-13.38l-23.18,13.38v26.76l23.18,13.38L366.47,784.01z"/>
				<path id="Path_454" class="st11" d="M238.42,784.01v-26.76l-23.18-13.38l-23.17,13.38v26.76l23.18,13.38L238.42,784.01z"/>
				<path id="Path_455" class="st11" d="M110.38,784.01v-26.76L87.2,743.87l-23.18,13.38v26.76l23.18,13.38L110.38,784.01z"/>
				<path id="Path_456" class="st11" d="M494.52,598.05v-26.77l-23.18-13.38l-23.18,13.38v26.77l23.18,13.38L494.52,598.05z"/>
				<path id="Path_457" class="st11" d="M366.47,598.05v-26.77L343.3,557.9l-23.18,13.38v26.77l23.18,13.38L366.47,598.05z"/>
				<path id="Path_458" class="st11" d="M238.42,598.05v-26.77l-23.18-13.38l-23.18,13.38v26.77l23.18,13.38L238.42,598.05z"/>
				<path id="Path_459" class="st11" d="M110.38,598.05v-26.77L87.2,557.9l-23.18,13.38v26.77l23.18,13.38L110.38,598.05z"/>
				<path id="Path_460" class="st11" d="M0,1201.63v26.76l23.18,13.38l23.18-13.38v-26.76l-23.18-13.38L0,1201.63z"/>
				<path id="Path_461" class="st11" d="M256.1,1201.63v26.76l23.18,13.38l23.18-13.38v-26.76l-23.18-13.38L256.1,1201.63z"/>
				<path id="Path_462" class="st11" d="M384.15,1201.63v26.76l23.18,13.38l23.18-13.38v-26.76l-23.18-13.38L384.15,1201.63z"/>
				<path id="Path_463" class="st11" d="M494.52,969.98v-26.76l-23.18-13.38l-23.18,13.38v26.76l23.18,13.38L494.52,969.98z"/>
				<path id="Path_464" class="st11" d="M366.47,969.98v-26.76l-23.18-13.38l-23.18,13.38v26.76l23.18,13.38L366.47,969.98z"/>
				<path id="Path_465" class="st11" d="M238.42,969.98v-26.76l-23.18-13.38l-23.18,13.38v26.76l23.18,13.38L238.42,969.98z"/>
				<path id="Path_466" class="st11" d="M110.38,969.98v-26.76L87.2,929.84l-23.18,13.38v26.76l23.18,13.38L110.38,969.98z"/>
				<path id="Path_467" class="st11" d="M640.24,1573.56v26.76l23.18,13.38l23.18-13.38v-26.76l-23.18-13.38L640.24,1573.56z"/>
				<path id="Path_468" class="st11" d="M512.19,1573.56v26.76l23.18,13.38l23.18-13.38v-26.76l-23.18-13.38L512.19,1573.56z"/>
				<path id="Path_469" class="st11" d="M768.29,1573.56v26.76l23.18,13.38l23.18-13.38v-26.76l-23.18-13.38L768.29,1573.56z"/>
				<path id="Path_470" class="st11" d="M896.34,1573.56v26.76l23.18,13.38l23.18-13.38v-26.76l-23.18-13.38L896.34,1573.56z"/>
				<path id="Path_471" class="st11" d="M1024.39,1573.56v26.76l23.18,13.38l23.18-13.38v-26.76l-23.18-13.38L1024.39,1573.56z"/>
				<path id="Path_472" class="st11" d="M640.24,1387.6v26.76l23.18,13.38l23.18-13.38v-26.76l-23.18-13.38L640.24,1387.6z"/>
				<path id="Path_473" class="st11" d="M512.19,1387.6v26.76l23.18,13.38l23.17-13.38v-26.76l-23.18-13.38L512.19,1387.6z"/>
				<path id="Path_474" class="st11" d="M768.29,1387.6v26.76l23.18,13.38l23.18-13.38v-26.76l-23.18-13.38L768.29,1387.6z"/>
				<path id="Path_475" class="st11" d="M896.34,1387.6v26.76l23.18,13.38l23.18-13.38v-26.76l-23.18-13.38L896.34,1387.6z"/>
				<path id="Path_476" class="st11" d="M1024.39,1387.6v26.76l23.18,13.38l23.18-13.38v-26.76l-23.18-13.38L1024.39,1387.6z"/>
				<path id="Path_477" class="st11" d="M1006.72,1341.92v-26.76l-23.18-13.38l-23.18,13.38v26.76l23.18,13.38L1006.72,1341.92z"/>
				<path id="Path_478" class="st11" d="M878.67,1341.92v-26.76l-23.18-13.38l-23.18,13.38v26.76l23.18,13.38L878.67,1341.92z"/>
				<path id="Path_479" class="st11" d="M750.62,1341.92v-26.76l-23.18-13.38l-23.18,13.38v26.76l23.18,13.38L750.62,1341.92z"/>
				<path id="Path_480" class="st11" d="M622.57,1341.92v-26.76l-23.18-13.38l-23.18,13.38v26.76l23.18,13.38L622.57,1341.92z"/>
				<path id="Path_481" class="st11" d="M1006.72,1155.95v-26.76l-23.18-13.38l-23.18,13.38v26.76l23.18,13.38L1006.72,1155.95z"/>
				<path id="Path_482" class="st11" d="M878.67,1155.95v-26.76l-23.18-13.38l-23.18,13.38v26.76l23.18,13.38L878.67,1155.95z"/>
				<path id="Path_483" class="st11" d="M750.62,1155.95v-26.76l-23.18-13.38l-23.18,13.38v26.76l23.18,13.38L750.62,1155.95z"/>
				<path id="Path_484" class="st11" d="M622.57,1155.95v-26.76l-23.18-13.38l-23.18,13.38v26.76l23.18,13.38L622.57,1155.95z"/>
				<path id="Path_485" class="st11" d="M640.24,1759.53v26.76l23.18,13.38l23.18-13.38v-26.76l-23.18-13.38L640.24,1759.53z"/>
				<path id="Path_486" class="st11" d="M512.19,1759.53v26.76l23.18,13.38l23.18-13.38v-26.76l-23.18-13.38L512.19,1759.53z"/>
				<path id="Path_487" class="st11" d="M768.29,1759.53v26.76l23.18,13.38l23.18-13.38v-26.76l-23.18-13.38L768.29,1759.53z"/>
				<path id="Path_488" class="st11" d="M896.34,1759.53v26.76l23.18,13.38l23.18-13.38v-26.76l-23.18-13.38L896.34,1759.53z"/>
				<path id="Path_489" class="st11" d="M1024.39,1759.53v26.76l23.18,13.38l23.18-13.38v-26.76l-23.18-13.38L1024.39,1759.53z"/>
				<path id="Path_490" class="st11" d="M1006.72,1527.88v-26.76l-23.18-13.38l-23.18,13.38v26.76l23.18,13.38L1006.72,1527.88z"/>
				<path id="Path_491" class="st11" d="M878.67,1527.88v-26.76l-23.18-13.38l-23.18,13.38v26.76l23.18,13.38L878.67,1527.88z"/>
				<path id="Path_492" class="st11" d="M750.62,1527.88v-26.76l-23.18-13.38l-23.18,13.38v26.76l23.18,13.38L750.62,1527.88z"/>
				<path id="Path_493" class="st11" d="M622.57,1527.88v-26.76l-23.18-13.38l-23.18,13.38v26.76l23.18,13.38L622.57,1527.88z"/>
				<path id="Path_504" class="st11" d="M1006.72,1899.82v-26.76l-23.18-13.38l-23.18,13.38v26.76l23.18,13.38L1006.72,1899.82z"/>
				<path id="Path_505" class="st11" d="M878.67,1899.82v-26.76l-23.18-13.38l-23.18,13.38v26.76l23.18,13.38L878.67,1899.82z"/>
				<path id="Path_506" class="st11" d="M750.62,1899.82v-26.76l-23.18-13.38l-23.18,13.38v26.76l23.18,13.38L750.62,1899.82z"/>
				<path id="Path_507" class="st11" d="M622.57,1899.82v-26.76l-23.18-13.38l-23.18,13.38v26.76l23.18,13.38L622.57,1899.82z"/>
				<path id="Path_508" class="st11" d="M1006.72,1713.85v-26.76l-23.18-13.38l-23.18,13.38v26.76l23.18,13.38L1006.72,1713.85z"/>
				<path id="Path_509" class="st11" d="M878.67,1713.85v-26.76l-23.18-13.38l-23.18,13.38v26.76l23.18,13.38L878.67,1713.85z"/>
				<path id="Path_510" class="st11" d="M750.62,1713.85v-26.76l-23.18-13.38l-23.18,13.38v26.76l23.18,13.38L750.62,1713.85z"/>
				<path id="Path_511" class="st11" d="M622.57,1713.85v-26.76l-23.18-13.38l-23.18,13.38v26.76l23.18,13.38L622.57,1713.85z"/>
				<path id="Path_521" class="st11" d="M640.24,457.76v26.76l23.18,13.38l23.18-13.38v-26.76l-23.18-13.38L640.24,457.76z"/>
				<path id="Path_522" class="st11" d="M512.19,457.76v26.76l23.18,13.38l23.17-13.38v-26.76l-23.18-13.38L512.19,457.76z"/>
				<path id="Path_523" class="st11" d="M768.29,457.76v26.76l23.18,13.38l23.18-13.38v-26.76l-23.18-13.38L768.29,457.76z"/>
				<path id="Path_524" class="st11" d="M896.34,457.76v26.76l23.18,13.38l23.18-13.38v-26.76l-23.18-13.38L896.34,457.76z"/>
				<path id="Path_525" class="st11" d="M1024.39,457.76v26.76l23.18,13.38l23.18-13.38v-26.76l-23.18-13.38L1024.39,457.76z"/>
				<path id="Path_537" class="st11" d="M640.24,643.72v26.76l23.18,13.38l23.18-13.38v-26.76l-23.18-13.38L640.24,643.72z"/>
				<path id="Path_538" class="st11" d="M512.19,643.72v26.76l23.18,13.38l23.18-13.38v-26.76l-23.18-13.38L512.19,643.72z"/>
				<path id="Path_539" class="st11" d="M896.34,643.72v26.76l23.18,13.38l23.18-13.38v-26.76l-23.18-13.38L896.34,643.72z"/>
				<path id="Path_540" class="st11" d="M1024.39,643.72v26.76l23.18,13.38l23.18-13.38v-26.76l-23.18-13.38L1024.39,643.72z"/>
				<path id="Path_545" class="st11" d="M512.19,1015.66v26.76l23.18,13.38l23.18-13.38v-26.76l-23.18-13.38L512.19,1015.66z"/>
				<path id="Path_546" class="st11" d="M768.29,1015.66v26.76l23.18,13.38l23.18-13.38v-26.76l-23.18-13.38L768.29,1015.66z"/>
				<path id="Path_547" class="st11" d="M896.34,1015.66v26.76l23.18,13.38l23.18-13.38v-26.76l-23.18-13.38L896.34,1015.66z"/>
				<path id="Path_548" class="st11" d="M1024.39,1015.66v26.76l23.18,13.38l23.18-13.38v-26.76l-23.18-13.38L1024.39,1015.66z"/>
				<path id="Path_549" class="st11" d="M640.24,829.69v26.76l23.18,13.38l23.18-13.38v-26.76l-23.18-13.38L640.24,829.69z"/>
				<path id="Path_550" class="st11" d="M512.19,829.69v26.76l23.18,13.38l23.17-13.38v-26.76l-23.18-13.38L512.19,829.69z"/>
				<path id="Path_551" class="st11" d="M768.29,829.69v26.76l23.18,13.38l23.18-13.38v-26.76l-23.18-13.38L768.29,829.69z"/>
				<path id="Path_552" class="st11" d="M896.34,829.69v26.76l23.18,13.38l23.18-13.38v-26.76l-23.18-13.38L896.34,829.69z"/>
				<path id="Path_553" class="st11" d="M1024.39,829.69v26.76l23.18,13.38l23.18-13.38v-26.76l-23.18-13.38L1024.39,829.69z"/>
				<path id="Path_554" class="st11" d="M1006.72,784.01v-26.76l-23.18-13.38l-23.18,13.38v26.76l23.18,13.38L1006.72,784.01z"/>
				<path id="Path_555" class="st11" d="M878.67,784.01v-26.76l-23.18-13.38l-23.18,13.38v26.76l23.18,13.38L878.67,784.01z"/>
				<path id="Path_556" class="st11" d="M750.62,784.01v-26.76l-23.18-13.38l-23.18,13.38v26.76l23.18,13.38L750.62,784.01z"/>
				<path id="Path_557" class="st11" d="M622.57,784.01v-26.76l-23.18-13.38l-23.18,13.38v26.76l23.18,13.38L622.57,784.01z"/>
				<path id="Path_558" class="st11" d="M1006.72,598.05v-26.77l-23.18-13.38l-23.18,13.38v26.77l23.18,13.38L1006.72,598.05z"/>
				<path id="Path_559" class="st11" d="M750.62,598.05v-26.77l-23.18-13.38l-23.18,13.38v26.77l23.18,13.38L750.62,598.05z"/>
				<path id="Path_560" class="st11" d="M622.57,598.05v-26.77l-23.18-13.38l-23.18,13.38v26.77l23.18,13.38L622.57,598.05z"/>
				<path id="Path_561" class="st11" d="M640.24,1201.63v26.76l23.18,13.38l23.18-13.38v-26.76l-23.18-13.38L640.24,1201.63z"/>
				<path id="Path_562" class="st11" d="M512.19,1201.63v26.76l23.18,13.38l23.18-13.38v-26.76l-23.18-13.38L512.19,1201.63z"/>
				<path id="Path_563" class="st11" d="M768.29,1201.63v26.76l23.18,13.38l23.18-13.38v-26.76l-23.18-13.38L768.29,1201.63z"/>
				<path id="Path_564" class="st11" d="M896.34,1201.63v26.76l23.18,13.38l23.18-13.38v-26.76l-23.18-13.38L896.34,1201.63z"/>
				<path id="Path_565" class="st11" d="M1024.39,1201.63v26.76l23.18,13.38l23.18-13.38v-26.76l-23.18-13.38L1024.39,1201.63z"/>
				<path id="Path_566" class="st11" d="M1006.72,969.98v-26.76l-23.18-13.38l-23.18,13.38v26.76l23.18,13.38L1006.72,969.98z"/>
				<path id="Path_567" class="st11" d="M878.67,969.98v-26.76l-23.18-13.38l-23.18,13.38v26.76l23.18,13.38L878.67,969.98z"/>
				<path id="Path_568" class="st11" d="M622.57,969.98v-26.76l-23.18-13.38l-23.18,13.38v26.76l23.18,13.38L622.57,969.98z"/>
				<path id="Path_569" class="st11" d="M256.1,1573.56v26.76l23.18,13.38l23.18-13.38v-26.76l-23.18-13.38L256.1,1573.56z"/>
				<path id="Path_570" class="st11" d="M238.42,1155.95v-26.76l-23.18-13.38l-23.18,13.38v26.76l23.18,13.38L238.42,1155.95z"/>
				<path id="Path_571" class="st11" d="M512.19,1759.53v26.76l23.18,13.38l23.18-13.38v-26.76l-23.18-13.38L512.19,1759.53z"/>
				<path id="Path_575" class="st11" d="M238.42,1899.82v-26.76l-23.18-13.38l-23.18,13.38v26.76l23.18,13.38L238.42,1899.82z"/>
				<path id="Path_577" class="st11" d="M512.19,457.76v26.76l23.18,13.38l23.17-13.38v-26.76l-23.18-13.38L512.19,457.76z"/>
				<path id="Path_579" class="st11" d="M512.19,643.72v26.76l23.18,13.38l23.18-13.38v-26.76l-23.18-13.38L512.19,643.72z"/>
				<path id="Path_580" class="st11" d="M512.19,1015.66v26.76l23.18,13.38l23.18-13.38v-26.76l-23.18-13.38L512.19,1015.66z"/>
				<path id="Path_581" class="st11" d="M512.19,829.69v26.76l23.18,13.38l23.17-13.38v-26.76l-23.18-13.38L512.19,829.69z"/>
				<path id="Path_582" class="st11" d="M512.19,1201.63v26.76l23.18,13.38l23.18-13.38v-26.76l-23.18-13.38L512.19,1201.63z"/>
				<path id="Path_583" class="st11" d="M535.37,1560.18l23.18,13.38v26.76l-23.18,13.38l-23.18-13.38v-26.76L535.37,1560.18
					 M535.37,1543.55l-7.2,4.16l-23.18,13.38l-7.2,4.16v43.39l7.2,4.16l23.18,13.38l7.2,4.16l7.2-4.16l23.18-13.38l7.2-4.16v-43.39
					l-7.2-4.16l-23.18-13.38L535.37,1543.55z"/>
				<path id="Path_586" class="st11" d="M768.29,643.72v26.76l23.18,13.38l23.18-13.38v-26.76l-23.18-13.38L768.29,643.72z"/>
				<path id="Path_587" class="st11" d="M640.24,1015.66v26.76l23.18,13.38l23.18-13.38v-26.76l-23.18-13.38L640.24,1015.66z"/>
				<path id="Path_588" class="st11" d="M878.67,598.05v-26.77l-23.18-13.38l-23.18,13.38v26.77l23.18,13.38L878.67,598.05z"/>
				<path id="Path_589" class="st11" d="M750.62,969.98v-26.76l-23.18-13.38l-23.18,13.38v26.76l23.18,13.38L750.62,969.98z"/>
				<path id="Path_590" class="st11" d="M512.19,1573.56v26.76l23.18,13.38l23.18-13.38v-26.76l-23.18-13.38L512.19,1573.56z"/>
				<path id="Path_591" class="st11" d="M512.19,1387.6v26.76l23.18,13.38l23.17-13.38v-26.76l-23.18-13.38L512.19,1387.6z"/>
				<path id="Path_592" class="st11" d="M128.05,1201.63v26.76l23.18,13.38l23.18-13.38v-26.76l-23.18-13.38L128.05,1201.63z"/>
			</g>
			<g id="Group_113">
				<path id="Path_594" class="st9" d="M1091.94,1484.11l-26.65-14.98l-30.18-16.97v-67.76l0,0l23.18-13.38l7.2-4.16v-43.39
					l-7.2-4.16l-23.18-13.38l-7.2-4.16l-7.2,4.16l-23.18,13.38l-7.2,4.16v43.39l7.2,4.16l23.18,13.38l0,0v67.76l-30.18,16.97
					l-26.65,14.98l-26.65-14.98l-30.18-16.97v-67.76l0,0l23.18-13.38l7.2-4.16v-43.39l-7.2-4.16l-23.18-13.38l-7.2-4.16l-7.2,4.16
					l-23.18,13.38l-7.2,4.16v43.39l7.2,4.16l23.18,13.38l0,0v67.76l-30.18,16.98l-26.65,14.98l-26.65-14.98l-30.18-16.97v-67.76l0,0
					l23.18-13.38l7.2-4.16v-43.39l-7.2-4.16l-23.18-13.39l-7.2-4.16l-7.2,4.16l-23.18,13.38l-7.2,4.16v43.39l7.2,4.16l23.18,13.38
					l0,0v67.76l-30.18,16.97l-26.65,14.98l-26.65-14.98l-30.18-16.97v-67.76l0,0l23.18-13.38l7.2-4.16v-43.39l-7.2-4.16
					l-23.18-13.38l-7.2-4.16l-7.2,4.16l-23.18,13.38l-7.2,4.16v43.39l7.2,4.16l23.18,13.38l0,0v67.76l-30.18,16.97l-26.65,14.98
					l-26.65-14.98l-30.18-16.97v-67.76l0,0l23.18-13.38l7.2-4.16v-43.39l-7.2-4.16l-23.18-13.38l-7.2-4.16l-7.2,4.16l-23.18,13.38
					l-7.2,4.16v43.39l7.2,4.16l23.18,13.38l0,0v67.76l-42.04,23.64l-14.78,8.31l-26.65-14.98l-30.18-16.97v-67.76l0,0l23.18-13.38
					l7.2-4.16v-43.39l-7.2-4.16l-23.18-13.39l-7.2-4.16l-7.2,4.16l-23.18,13.38l-7.2,4.16v43.39l7.2,4.16l23.18,13.38l0,0v67.76
					l-30.18,16.97l-26.65,14.98l-56.82-31.95v-67.76l23.18-13.38l7.2-4.16v-43.39l-7.2-4.16l-23.18-13.38l-7.2-4.16l-7.2,4.16
					l-23.18,13.38l-7.2,4.16v43.39l7.2,4.16l23.18,13.38v67.76l-30.18,16.97l-26.65,14.98l-26.65-14.98l-30.18-16.97v-67.76l0,0
					l23.18-13.38l7.2-4.16v-43.39l-7.2-4.16l-23.17-13.38l-7.2-4.16l-7.2,4.16l-23.18,13.38l-7.2,4.16v43.39l7.2,4.16l23.18,13.38
					l0,0v67.76l-30.18,16.98l-26.65,14.98l-60.5-34.02L0,1462.65l60.35,33.94v67.76l0,0l-23.18,13.38l-7.2,4.16v43.39l7.2,4.16
					l23.18,13.38l7.2,4.16l7.2-4.16l23.18-13.38l7.2-4.16v-43.39l-7.2-4.16l-23.18-13.38l0,0v-67.76l30.18-16.97l26.66-14.99
					l26.65,14.98l30.18,16.97v67.76l0,0l-23.18,13.38l-7.2,4.16v43.39l7.2,4.16l23.18,13.38l7.2,4.16l7.2-4.16l23.18-13.38l7.2-4.16
					v-43.39l-7.2-4.16l-23.18-13.38l0,0v-67.76l30.18-16.97l26.65-14.98l38.51,21.66l18.31,10.3v67.76l0,0l-23.18,13.38l-7.2,4.16
					v43.39l7.2,4.16l23.18,13.38l7.2,4.16l7.2-4.16l23.18-13.38l7.2-4.16v-43.39l-7.2-4.16l-23.18-13.38l0,0v-67.76l30.18-16.97
					l26.65-14.98l26.65,14.98l30.18,16.97v67.76l0,0l-23.18,13.38l-7.2,4.16v43.39l7.2,4.16l23.18,13.38l7.2,4.16l7.2-4.16
					l23.18-13.38l7.2-4.16v-43.39l-7.2-4.16l-23.18-13.38l0,0v-67.76l56.82-31.95l38.51,21.66l18.31,10.3v67.76l0,0l-23.18,13.38
					l-7.2,4.16v43.39l7.2,4.16l23.18,13.38l7.2,4.16l7.2-4.16l23.18-13.38l7.2-4.16v-43.39l-7.2-4.16l-23.18-13.38l0,0v-67.76
					l30.18-16.97l26.65-14.98l26.65,14.98l30.18,16.97v67.76l-23.18,13.38l-7.2,4.16v43.39l7.2,4.16l23.18,13.38l7.2,4.16l7.2-4.16
					l23.18-13.38l7.2-4.16v-43.39l-7.2-4.16l-23.18-13.38l0,0v-67.76l30.18-16.97l26.65-14.98l26.65,14.98l30.18,16.97v67.76l0,0
					l-23.18,13.38l-7.2,4.16v43.39l7.2,4.16l23.18,13.38l7.2,4.16l7.2-4.16l23.18-13.38l7.2-4.16v-43.39l-7.2-4.16l-23.18-13.38l0,0
					v-67.76l30.18-16.97l26.65-14.98l26.65,14.98l30.18,16.97v67.76l-23.18,13.38l-7.2,4.16v43.39l7.2,4.16l23.18,13.38l7.2,4.16
					l7.2-4.16l23.18-13.38l7.2-4.16v-43.39l-7.2-4.16l-23.18-13.38l0,0v-67.76l30.18-16.97l26.65-14.98l26.65,14.98l30.18,16.97
					v67.76l0,0l-23.18,13.38l-7.2,4.16v43.39l7.2,4.16l23.18,13.38l7.2,4.16l7.2-4.16l23.18-13.38l7.2-4.16v-43.39l-7.2-4.16
					l-23.18-13.38l0,0v-67.76l60.35-33.94l-7.06-12.55L1091.94,1484.11z M1004.74,1358.54v-26.76l23.18-13.38l23.18,13.38v26.76
					l-23.18,13.38L1004.74,1358.54z M876.69,1358.54v-26.76l23.18-13.38l23.18,13.38v26.76l-23.18,13.38L876.69,1358.54z
					 M748.64,1358.54v-26.76l23.18-13.38l23.18,13.38v26.76l-23.18,13.38L748.64,1358.54z M620.6,1358.54v-26.76l23.18-13.38
					l23.18,13.38v26.76l-23.18,13.38L620.6,1358.54z M492.55,1358.54v-26.76l23.18-13.38l23.18,13.38v26.76l-23.18,13.38
					L492.55,1358.54z M364.5,1358.54v-26.76l23.18-13.38l23.18,13.38v26.76l-23.18,13.38L364.5,1358.54z M236.45,1331.78
					l23.18-13.38l23.18,13.38v26.76l-23.18,13.38l-23.18-13.38L236.45,1331.78z M108.4,1358.54v-26.76l23.18-13.38l23.18,13.38
					v26.76l-23.17,13.38L108.4,1358.54z M90.73,1590.19v26.76l-23.18,13.38l-23.18-13.38v-26.76l23.18-13.38L90.73,1590.19z
					 M218.78,1590.19v26.76l-23.18,13.38l-23.18-13.38v-26.76l23.18-13.38L218.78,1590.19z M346.83,1590.19v26.76l-23.18,13.38
					l-23.18-13.38v-26.76l23.18-13.38L346.83,1590.19z M474.87,1590.19v26.76l-23.18,13.38l-23.18-13.38v-26.76l23.18-13.38
					L474.87,1590.19z M602.92,1590.19v26.76l-23.18,13.38l-23.18-13.38v-26.76l23.18-13.38L602.92,1590.19z M730.97,1590.19v26.76
					l-23.18,13.38l-23.18-13.38v-26.76l23.18-13.38L730.97,1590.19z M859.02,1590.19v26.76l-23.18,13.38l-23.18-13.38v-26.76
					l23.18-13.38L859.02,1590.19z M987.07,1590.19v26.76l-23.18,13.38l-23.18-13.38v-26.76l23.18-13.38L987.07,1590.19z
					 M1115.12,1590.19v26.76l-23.18,13.38l-23.18-13.38v-26.76l23.18-13.38L1115.12,1590.19z"/>
				<path id="Path_595" class="st9" d="M1091.94,1298.14l-26.65-14.98l-30.18-16.97v-67.76l0,0l23.18-13.38l7.2-4.16v-43.39
					l-7.2-4.16l-23.18-13.38l-7.2-4.16l-7.2,4.16l-23.18,13.38l-7.2,4.16v43.39l7.2,4.16l23.18,13.38l0,0v67.76l-30.18,16.97
					l-26.65,14.98l-26.65-14.98l-30.18-16.97v-67.76l0,0l23.18-13.38l7.2-4.16v-43.39l-7.2-4.16l-23.18-13.38l-7.2-4.16l-7.2,4.16
					l-23.18,13.38l-7.2,4.16v43.39l7.2,4.16l23.18,13.38l0,0v67.76l-30.18,16.97l-26.65,14.98l-26.65-14.98l-30.18-16.97v-67.76l0,0
					l23.18-13.38l7.2-4.16v-43.39l-7.2-4.16l-23.18-13.38l-7.2-4.16l-7.2,4.16l-23.18,13.38l-7.2,4.16v43.39l7.2,4.16l23.18,13.38
					l0,0v67.76l-30.18,16.97l-26.65,14.98l-26.65-14.98l-30.18-16.97v-67.76l0,0l23.18-13.38l7.2-4.16v-43.39l-7.2-4.16
					l-23.18-13.38l-7.2-4.16l-7.2,4.16l-23.18,13.38l-7.2,4.16v43.39l7.2,4.16l23.17,13.38l0,0v67.76l-30.18,16.97l-26.65,14.98
					l-26.65-14.98l-30.18-16.97v-67.76l23.18-13.38l7.2-4.16v-43.39l-7.2-4.16l-23.18-13.38l-7.2-4.16l-7.2,4.16l-23.18,13.38
					l-7.2,4.16v43.39l7.2,4.16l23.18,13.38l0,0v67.76l-43.02,24.19l-13.81,7.77l-26.65-14.98l-30.18-16.97v-67.76l0,0l23.18-13.38
					l7.2-4.16v-43.39l-7.2-4.16l-23.18-13.38l-7.2-4.16l-7.2,4.16l-23.18,13.38l-7.2,4.16v43.39l7.2,4.16l23.18,13.38l0,0v67.76
					l-30.18,16.97l-26.65,14.98l-56.82-31.95v-67.76l23.18-13.38l7.2-4.16v-43.39l-7.2-4.16l-23.18-13.38l-7.2-4.16l-7.2,4.16
					l-23.18,13.38l-7.2,4.16v43.39l7.2,4.16l23.18,13.38v67.76l-30.18,16.97l-26.65,14.98l-26.65-14.98l-30.18-16.97v-67.76l0,0
					l23.18-13.38l7.2-4.16v-43.39l-7.2-4.16l-23.18-13.38l-7.2-4.16l-7.2,4.16l-23.18,13.38l-7.2,4.16v43.39l7.2,4.16l23.18,13.38
					l0,0v67.76l-30.18,16.97l-26.65,14.98l-60.5-34.01L0,1276.68l60.35,33.94v67.76l0,0l-23.18,13.38l-7.2,4.16v43.39l7.2,4.16
					l23.18,13.38l7.2,4.16l7.2-4.16l23.18-13.38l7.2-4.16v-43.39l-7.2-4.16l-23.18-13.38v-67.76l30.18-16.97l26.65-14.98
					l26.65,14.98l30.18,16.97v67.76l0,0l-23.18,13.38l-7.2,4.16v43.39l7.2,4.16l23.18,13.38l7.2,4.16l7.2-4.16l23.18-13.38l7.2-4.16
					v-43.39l-7.2-4.16l-23.18-13.38l0,0v-67.76l30.18-16.97l26.65-14.98l39.49,22.2l17.34,9.75v67.76l0,0l-23.18,13.38l-7.2,4.16
					v43.39l7.2,4.16l23.18,13.38l7.2,4.16l7.2-4.16l23.18-13.38l7.2-4.16v-43.39l-7.2-4.16l-23.18-13.38l0,0v-67.76l30.18-16.97
					l26.65-14.98l26.65,14.98l30.18,16.97v67.76l0,0l-23.18,13.38l-7.2,4.16v43.39l7.2,4.16l23.18,13.38l7.2,4.16l7.2-4.16
					l23.18-13.38l7.2-4.16v-43.39l-7.2-4.16l-23.18-13.38l0,0v-67.76l56.82-31.95l39.49,22.2l17.34,9.75v67.76l0,0l-23.18,13.38
					l-7.2,4.16v43.39l7.2,4.16l23.18,13.38l7.2,4.16l0,0l7.2-4.16l23.18-13.38l7.2-4.16v-43.39l-7.2-4.16l-23.18-13.38l0,0v-67.76
					l30.18-16.97l26.65-14.98l26.65,14.98l30.18,16.97v67.76l-23.18,13.38l-7.2,4.16v43.39l7.2,4.16l23.18,13.38l7.2,4.16l7.2-4.16
					l23.18-13.38l7.2-4.16v-43.39l-7.2-4.16l-23.18-13.38l0,0v-67.76l30.18-16.97l26.65-14.98l26.65,14.98l30.18,16.97v67.76l0,0
					l-23.18,13.38l-7.2,4.16v43.39l7.2,4.16l23.18,13.38l7.2,4.16l7.2-4.16l23.18-13.38l7.2-4.16v-43.39l-7.2-4.16l-23.18-13.38l0,0
					v-67.76l30.18-16.97l26.65-14.98l26.65,14.98l30.18,16.97v67.76l-23.18,13.38l-7.2,4.16v43.39l7.2,4.16l23.18,13.38l7.2,4.16
					l7.2-4.16l23.18-13.38l7.2-4.16v-43.39l-7.2-4.16l-23.18-13.38l0,0v-67.76l30.18-16.97l26.65-14.98l26.65,14.98l30.18,16.97
					v67.76l0,0l-23.18,13.38l-7.2,4.16v43.39l7.2,4.16l23.18,13.38l7.2,4.16l7.2-4.16l23.18-13.38l7.2-4.16v-43.39l-7.2-4.16
					l-23.18-13.38l0,0v-67.76l60.35-33.94l-7.05-12.55L1091.94,1298.14z M1004.74,1172.58v-26.76l23.18-13.38l23.18,13.38v26.76
					l-23.18,13.38L1004.74,1172.58z M876.69,1172.58v-26.76l23.18-13.38l23.18,13.38v26.76l-23.18,13.38L876.69,1172.58z
					 M748.64,1172.58v-26.76l23.18-13.38l23.18,13.38v26.76l-23.18,13.38L748.64,1172.58z M620.6,1172.58v-26.76l23.18-13.38
					l23.18,13.38v26.76l-23.18,13.38L620.6,1172.58z M492.55,1172.58v-26.76l23.18-13.38l23.18,13.38v26.76l-23.18,13.38
					L492.55,1172.58z M364.5,1172.58v-26.76l23.18-13.38l23.18,13.38v26.76l-23.18,13.38L364.5,1172.58z M236.45,1145.81
					l23.18-13.38l23.18,13.38v26.76l-23.18,13.38l-23.18-13.38V1145.81z M108.4,1172.58v-26.76l23.18-13.38l23.18,13.38v26.76
					l-23.17,13.38L108.4,1172.58z M90.73,1404.22v26.76l-23.18,13.38l-23.17-13.38v-26.76l23.18-13.38L90.73,1404.22z
					 M218.78,1404.22v26.76l-23.18,13.38l-23.18-13.38v-26.76l23.18-13.38L218.78,1404.22z M346.83,1404.22v26.76l-23.18,13.38
					l-23.18-13.38v-26.76l23.18-13.38L346.83,1404.22z M474.87,1404.22v26.76l-23.18,13.38l-23.18-13.38v-26.76l23.18-13.38
					L474.87,1404.22z M556.57,1430.99v-26.76l23.18-13.38l23.18,13.38v26.76l-23.18,13.38L556.57,1430.99z M730.97,1404.22v26.76
					l-23.18,13.38l-23.18-13.38v-26.76l23.18-13.38L730.97,1404.22z M859.02,1404.22v26.76l-23.18,13.38l-23.18-13.38v-26.76
					l23.18-13.38L859.02,1404.22z M987.07,1404.22v26.76l-23.18,13.38l-23.18-13.38v-26.76l23.18-13.38L987.07,1404.22z
					 M1115.12,1404.22v26.76l-23.18,13.38l-23.18-13.38v-26.76l23.18-13.38L1115.12,1404.22z"/>
				<path id="Path_596" class="st9" d="M1091.94,1670.08l-26.65-14.98l-30.18-16.97v-67.76l0,0l23.18-13.38l7.2-4.16v-43.39
					l-7.2-4.16l-23.18-13.38l-7.2-4.16l-7.2,4.16l-23.18,13.38l-7.2,4.16v43.39l7.2,4.16l23.18,13.38l0,0v67.76l-30.18,16.97
					l-26.65,14.98l-26.65-14.98l-30.18-16.97v-67.76l0,0l23.18-13.38l7.2-4.16v-43.39l-7.2-4.16l-23.18-13.38l-7.2-4.16l-7.2,4.16
					l-23.18,13.38l-7.2,4.16v43.39l7.2,4.16l23.18,13.38l0,0v67.76l-30.18,16.97l-26.65,14.98l-26.65-14.98l-30.18-16.97v-67.76l0,0
					l23.18-13.38l7.2-4.16v-43.39l-7.2-4.16l-23.18-13.38l-7.2-4.16l-7.2,4.16l-23.18,13.38l-7.2,4.16v43.39l7.2,4.16l23.18,13.38
					l0,0v67.76l-30.18,16.97l-26.65,14.98l-26.65-14.98l-30.18-16.97v-67.76l0,0l23.18-13.38l7.2-4.16v-43.39l-7.2-4.16
					l-23.18-13.38l-7.2-4.16l-7.2,4.16l-23.18,13.38l-7.2,4.16v43.39l7.2,4.16l23.18,13.38l0,0v67.76l-30.18,16.97l-26.65,14.98
					l-26.65-14.98l-30.18-16.97v-67.76l23.18-13.38l7.2-4.16v-43.39l-7.2-4.16l-23.18-13.38l-7.2-4.16l-7.2,4.16l-23.18,13.38
					l-7.2,4.16v43.39l7.2,4.16l23.18,13.38l0,0v67.76l-43.02,24.19l-13.81,7.77l-26.65-14.98l-30.18-16.97v-67.76l0,0l23.18-13.38
					l7.2-4.16v-43.39l-7.2-4.16l-23.18-13.38l-7.2-4.16l-7.2,4.16l-23.18,13.38l-7.2,4.16v43.39l7.2,4.16l23.18,13.38l0,0v67.76
					l-30.18,16.97l-26.65,14.98l-56.82-31.95v-67.76l23.18-13.38l7.2-4.16v-43.39l-7.2-4.16l-23.18-13.38l-7.2-4.16l-7.2,4.16
					l-23.18,13.38l-7.2,4.16v43.39l7.2,4.16l23.18,13.38v67.76l-30.18,16.97l-26.65,14.98l-26.65-14.98l-30.18-16.97v-67.76l0,0
					l23.18-13.38l7.2-4.16v-43.39l-7.2-4.16l-23.18-13.38l-7.2-4.16l-7.2,4.16l-23.18,13.38l-7.2,4.16v43.39l7.2,4.16l23.18,13.38
					l0,0v67.76l-30.18,16.97l-26.65,14.98l-60.5-34.02L0,1648.61l60.35,33.94v67.76l0,0l-23.18,13.38l-7.2,4.16v43.39l7.2,4.16
					l23.18,13.38l7.2,4.16l7.2-4.16l23.18-13.38l7.2-4.16v-43.39l-7.2-4.16l-23.18-13.38v-67.76l30.18-16.97l26.65-14.98
					l26.65,14.98l30.18,16.97v67.76l0,0l-23.18,13.38l-7.2,4.16v43.39l7.2,4.16l23.18,13.38l7.2,4.16l7.2-4.16l23.18-13.38l7.2-4.16
					v-43.39l-7.2-4.16l-23.18-13.38l0,0v-67.76l30.18-16.97l26.65-14.98l39.49,22.2l17.34,9.75v67.76l0,0l-23.18,13.38l-7.2,4.16
					v43.39l7.2,4.16l23.18,13.38l7.2,4.16l7.2-4.16l23.18-13.38l7.2-4.16v-43.39l-7.2-4.16l-23.18-13.38l0,0v-67.76l30.18-16.97
					l26.65-14.98l26.65,14.98l30.18,16.97v67.76l0,0l-23.18,13.38l-7.2,4.16v43.39l7.2,4.16l23.18,13.38l7.2,4.16l7.2-4.16
					l23.18-13.38l7.2-4.16v-43.39l-7.2-4.16l-23.18-13.38l0,0v-67.76l56.82-31.95l39.49,22.2l17.34,9.75v67.76l0,0l-23.18,13.38
					l-7.2,4.16v43.39l7.2,4.16l23.18,13.38l7.2,4.16l0,0l7.2-4.16l23.18-13.38l7.2-4.16v-43.39l-7.2-4.16l-23.18-13.38l0,0v-67.76
					l30.18-16.97l26.65-14.98l26.65,14.98l30.18,16.97v67.76l-23.18,13.38l-7.2,4.16v43.39l7.2,4.16l23.18,13.38l7.2,4.16l7.2-4.16
					l23.18-13.38l7.2-4.16v-43.39l-7.2-4.16l-23.18-13.38l0,0v-67.76l30.18-16.97l26.65-14.98l26.65,14.98l30.18,16.97v67.76l0,0
					l-23.18,13.38l-7.2,4.16v43.39l7.2,4.16l23.18,13.38l7.2,4.16l7.2-4.16l23.18-13.38l7.2-4.16v-43.39l-7.2-4.16l-23.18-13.38l0,0
					v-67.76l30.18-16.97l26.65-14.98l26.65,14.98l30.18,16.97v67.76l-23.18,13.38l-7.2,4.16v43.39l7.2,4.16l23.18,13.38l7.2,4.16
					l7.2-4.16l23.18-13.38l7.2-4.16v-43.39l-7.2-4.16l-23.18-13.38l0,0v-67.76l30.18-16.97l26.65-14.98l26.65,14.98l30.18,16.97
					v67.76l0,0l-23.18,13.38l-7.2,4.16v43.39l7.2,4.16l23.18,13.38l7.2,4.16l7.2-4.16l23.18-13.38l7.2-4.16v-43.39l-7.2-4.16
					l-23.18-13.38l0,0v-67.76l60.35-33.94l-7.06-12.55L1091.94,1670.08z M1004.74,1544.51v-26.76l23.18-13.38l23.18,13.38v26.76
					l-23.18,13.38L1004.74,1544.51z M876.69,1544.51v-26.76l23.18-13.38l23.18,13.38v26.76l-23.18,13.38L876.69,1544.51z
					 M748.64,1544.51v-26.76l23.18-13.38l23.18,13.38v26.76l-23.18,13.38L748.64,1544.51z M620.6,1544.51v-26.76l23.18-13.38
					l23.18,13.38v26.76l-23.18,13.38L620.6,1544.51z M492.55,1544.51v-26.76l23.18-13.38l23.18,13.38v26.76l-23.18,13.38
					L492.55,1544.51z M364.5,1544.51v-26.76l23.18-13.38l23.18,13.38v26.76l-23.18,13.38L364.5,1544.51z M236.45,1517.75
					l23.18-13.38l23.18,13.38v26.76l-23.18,13.38l-23.18-13.38V1517.75z M108.4,1544.51v-26.76l23.18-13.38l23.18,13.38v26.76
					l-23.18,13.38L108.4,1544.51z M90.73,1776.16v26.76l-23.18,13.38l-23.18-13.38v-26.76l23.18-13.38L90.73,1776.16z
					 M218.78,1776.16v26.76l-23.18,13.38l-23.18-13.38v-26.76l23.18-13.38L218.78,1776.16z M346.83,1776.16v26.76l-23.18,13.38
					l-23.18-13.38v-26.76l23.18-13.38L346.83,1776.16z M474.87,1776.16v26.76l-23.18,13.38l-23.18-13.38v-26.76l23.18-13.38
					L474.87,1776.16z M556.57,1802.92v-26.76l23.18-13.38l23.18,13.38v26.76l-23.18,13.38L556.57,1802.92z M730.97,1776.16v26.76
					l-23.18,13.38l-23.18-13.38v-26.76l23.18-13.38L730.97,1776.16z M859.02,1776.16v26.76l-23.18,13.38l-23.18-13.38v-26.76
					l23.18-13.38L859.02,1776.16z M987.07,1776.16v26.76l-23.18,13.38l-23.18-13.38v-26.76l23.18-13.38L987.07,1776.16z
					 M1115.12,1776.16v26.76l-23.18,13.38l-23.18-13.38v-26.76l23.18-13.38L1115.12,1776.16z"/>
				<path id="Path_597" class="st9" d="M1091.94,2042.01l-26.65-14.99l-30.18-16.97v-67.76l0,0l23.18-13.38l7.2-4.16v-43.39
					l-7.2-4.16l-23.18-13.38l-7.2-4.16l-7.2,4.16l-23.18,13.38l-7.2,4.16v43.39l7.2,4.16l23.18,13.38l0,0v67.76l-30.18,16.97
					l-26.65,14.99l-26.65-14.99l-30.18-16.97v-67.76l0,0l23.18-13.38l7.2-4.16v-43.39l-7.2-4.16l-23.18-13.38l-7.2-4.16l-7.2,4.16
					l-23.18,13.38l-7.2,4.16v43.39l7.2,4.16l23.18,13.38l0,0v67.76l-30.18,16.97l-26.65,14.99l-26.65-14.99l-30.18-16.97v-67.76
					l23.18-13.38l7.2-4.16v-43.39l-7.2-4.16l-23.18-13.38l-7.2-4.16l-7.2,4.16l-23.18,13.38l-7.2,4.16v43.39l7.2,4.16l23.18,13.38
					l0,0v67.76l-30.18,16.97l-26.65,14.99l-26.65-14.99l-30.18-16.97v-67.76l0,0l23.18-13.38l7.2-4.16v-43.39l-7.2-4.16
					l-23.18-13.38l-7.2-4.16l-7.2,4.16l-23.18,13.38l-7.2,4.16v43.39l7.2,4.16l23.18,13.38l0,0v67.76l-30.18,16.97l-26.65,14.99
					l-26.65-14.99l-30.18-16.97v-67.76l23.18-13.38l7.2-4.16v-43.39l-7.2-4.16l-23.18-13.38l-7.2-4.16l-7.2,4.16l-23.18,13.38
					l-7.2,4.16v43.39l7.2,4.16l23.18,13.38l0,0v67.76l-43.02,24.19l-13.81,7.76l-26.65-14.99l-30.18-16.97v-67.76l0,0l23.18-13.38
					l7.2-4.16v-43.39l-7.2-4.16l-23.18-13.38l-7.2-4.16l-7.2,4.16l-23.18,13.38l-7.2,4.16v43.39l7.2,4.16l23.18,13.38l0,0v67.76
					l-30.18,16.97l-26.65,14.99l-56.82-31.95v-67.76l23.18-13.38l7.2-4.16v-43.39l-7.2-4.16l-23.18-13.38l-7.2-4.16l-7.2,4.16
					l-23.18,13.38l-7.2,4.16v43.39l7.2,4.16l23.18,13.38v67.76l-30.18,16.97l-26.65,14.99l-26.65-14.99l-30.18-16.97v-67.76l0,0
					l23.18-13.38l7.2-4.16v-43.39l-7.2-4.16l-23.18-13.38l-7.2-4.16l-7.2,4.16l-23.18,13.38l-7.2,4.16v43.39l7.2,4.16l23.18,13.38
					l0,0v67.76l-30.18,16.97l-26.65,14.99l-60.5-34.02L0,2020.55l60.35,33.94v67.76l0,0l-23.18,13.38l-7.2,4.16v43.39l7.2,4.16
					l23.18,13.38l7.2,4.16l7.2-4.16l23.18-13.38l7.2-4.16v-43.39l-7.2-4.16l-23.18-13.38v-67.76l30.18-16.97l26.65-14.98
					l26.65,14.98l30.18,16.97v67.76l0,0l-23.18,13.38l-7.2,4.16v43.39l7.2,4.16l23.18,13.38l7.2,4.16l7.2-4.16l23.18-13.38l7.2-4.16
					v-43.39l-7.2-4.16l-23.18-13.38l0,0v-67.76l30.18-16.97l26.65-14.98l39.49,22.2l17.34,9.75v67.76l0,0l-23.18,13.38l-7.2,4.16
					v43.39l7.2,4.16l23.18,13.38l7.2,4.16l7.2-4.16l23.18-13.38l7.2-4.16v-43.39l-7.2-4.16l-23.18-13.38v-67.76l30.18-16.97
					l26.65-14.98l26.65,14.98l30.18,16.97v67.76l0,0l-23.18,13.38l-7.2,4.16v43.39l7.2,4.16l23.18,13.38l7.2,4.16l7.2-4.16
					l23.18-13.38l7.2-4.16v-43.39l-7.2-4.16l-23.18-13.38l0,0v-67.76l56.82-31.95l39.49,22.2l17.34,9.75v67.76l0,0l-23.18,13.38
					l-7.2,4.16v43.39l7.2,4.16l23.18,13.38l7.2,4.16l0,0l7.2-4.16l23.18-13.38l7.2-4.16v-43.39l-7.2-4.16l-23.18-13.38l0,0v-67.76
					l30.18-16.97l26.65-14.98l26.65,14.98l30.18,16.97v67.76l-23.18,13.38l-7.2,4.16v43.39l7.2,4.16l23.18,13.38l7.2,4.16l7.2-4.16
					l23.18-13.38l7.2-4.16v-43.39l-7.2-4.16l-23.18-13.38l0,0v-67.76l30.18-16.97l26.65-14.98l26.65,14.98l30.18,16.97v67.76l0,0
					l-23.18,13.38l-7.2,4.16v43.39l7.2,4.16l23.18,13.38l7.2,4.16l7.2-4.16l23.18-13.38l7.2-4.16v-43.39l-7.2-4.16l-23.18-13.38l0,0
					v-67.76l30.18-16.97l26.65-14.98l26.65,14.98l30.18,16.97v67.76l-23.18,13.38l-7.2,4.16v43.39l7.2,4.16l23.18,13.38l7.2,4.16
					l7.2-4.16l23.18-13.38l7.2-4.16v-43.39l-7.2-4.16l-23.18-13.38l0,0v-67.76l30.18-16.97l26.65-14.98l26.65,14.98l30.18,16.97
					v67.76l0,0l-23.18,13.38l-7.2,4.16v43.39l7.2,4.16l23.18,13.38l7.2,4.16l7.2-4.16l23.18-13.38l7.2-4.16v-43.39l-7.2-4.16
					l-23.18-13.38l0,0v-67.76l60.35-33.94l-7.06-12.55L1091.94,2042.01z M1004.74,1916.45v-26.76l23.18-13.38l23.18,13.38v26.76
					l-23.18,13.38L1004.74,1916.45z M876.69,1916.45v-26.76l23.18-13.38l23.18,13.38v26.76l-23.18,13.38L876.69,1916.45z
					 M748.64,1916.45v-26.76l23.18-13.38l23.18,13.38v26.76l-23.18,13.38L748.64,1916.45z M620.6,1916.45v-26.76l23.18-13.38
					l23.18,13.38v26.76l-23.18,13.38L620.6,1916.45z M492.55,1916.45v-26.76l23.18-13.38l23.18,13.38v26.76l-23.18,13.38
					L492.55,1916.45z M364.5,1916.45v-26.76l23.18-13.38l23.18,13.38v26.76l-23.18,13.38L364.5,1916.45z M236.45,1889.69
					l23.18-13.38l23.18,13.38v26.76l-23.18,13.38l-23.18-13.38V1889.69z M108.4,1916.45v-26.76l23.18-13.38l23.18,13.38v26.76
					l-23.18,13.38L108.4,1916.45z M90.73,2174.85l-23.18,13.38l-23.18-13.38v-26.76l23.18-13.38l23.18,13.38V2174.85z
					 M218.78,2148.09v26.76l-23.18,13.38l-23.18-13.38v-26.76l23.18-13.38L218.78,2148.09z M346.83,2148.09v26.76l-23.18,13.38
					l-23.18-13.38v-26.76l23.18-13.38L346.83,2148.09z M474.87,2148.09v26.76l-23.18,13.38l-23.18-13.38v-26.76l23.18-13.38
					L474.87,2148.09z M556.57,2174.85v-26.76l23.18-13.38l23.18,13.38v26.76l-23.18,13.38L556.57,2174.85z M730.97,2148.09v26.76
					l-23.18,13.38l-23.18-13.38v-26.76l23.18-13.38L730.97,2148.09z M859.02,2148.09v26.76l-23.18,13.38l-23.18-13.38v-26.76
					l23.18-13.38L859.02,2148.09z M987.07,2148.09v26.76l-23.18,13.38l-23.18-13.38v-26.76l23.18-13.38L987.07,2148.09z
					 M1115.12,2148.09v26.76l-23.18,13.38l-23.18-13.38v-26.76l23.18-13.38L1115.12,2148.09z"/>
				<path id="Path_598" class="st9" d="M1091.94,1856.04l-26.65-14.98l-30.18-16.97v-67.76l0,0l23.18-13.38l7.2-4.16v-43.39
					l-7.2-4.16l-23.18-13.38l-7.2-4.16l-7.2,4.16l-23.18,13.38l-7.2,4.16v43.39l7.2,4.16l23.18,13.38l0,0v67.76l-30.18,16.97
					l-26.65,14.98l-26.65-14.98l-30.18-16.97v-67.76l0,0l23.18-13.38l7.2-4.16v-43.39l-7.2-4.16l-23.18-13.38l-7.2-4.16l-7.2,4.16
					l-23.18,13.38l-7.2,4.16v43.39l7.2,4.16l23.18,13.38l0,0v67.76l-30.18,16.97l-26.65,14.98l-26.65-14.98l-30.18-16.97v-67.76l0,0
					l23.18-13.38l7.2-4.16v-43.39l-7.2-4.16l-23.18-13.38l-7.2-4.16l-7.2,4.16l-23.18,13.38l-7.2,4.16v43.39l7.2,4.16l23.18,13.38
					l0,0v67.76l-30.18,16.97l-26.65,14.98l-26.65-14.98l-30.18-16.97v-67.76l0,0l23.18-13.38l7.2-4.16v-43.39l-7.2-4.16
					l-23.18-13.38l-7.2-4.16l-7.2,4.16l-23.18,13.38l-7.2,4.16v43.39l7.2,4.16l23.18,13.38l0,0v67.76l-30.18,16.97l-26.65,14.98
					l-26.65-14.98l-30.18-16.97v-67.76l0,0l23.18-13.38l7.2-4.16v-43.39l-7.2-4.16l-23.18-13.38l-7.2-4.16l-7.2,4.16l-23.18,13.38
					l-7.2,4.16v43.39l7.2,4.16l23.18,13.38l0,0v67.76l-43.02,24.19l-13.81,7.77l-26.65-14.98l-30.18-16.97v-67.76l0,0l23.18-13.38
					l7.2-4.16v-43.39l-7.2-4.16l-23.18-13.38l-7.2-4.16l-7.2,4.16l-23.18,13.38l-7.2,4.16v43.39l7.2,4.16l23.18,13.38l0,0v67.76
					l-30.18,16.97l-26.65,14.98l-56.82-31.95v-67.76l23.18-13.38l7.2-4.16v-43.39l-7.2-4.16l-23.18-13.38l-7.2-4.16l-7.2,4.16
					l-23.18,13.38l-7.2,4.16v43.39l7.2,4.16l23.18,13.38v67.76l-30.18,16.97l-26.65,14.98l-26.65-14.98l-30.18-16.97v-67.76l0,0
					l23.18-13.38l7.2-4.16v-43.39l-7.2-4.16l-23.18-13.38l-7.2-4.16l-7.2,4.16l-23.18,13.38l-7.2,4.16v43.39l7.2,4.16l23.18,13.38
					l0,0v67.76l-30.18,16.97l-26.65,14.98l-60.5-34.02L0,1834.58l60.35,33.94v67.76l0,0l-23.18,13.38l-7.2,4.16v43.39l7.2,4.16
					l23.18,13.38l7.2,4.16l7.2-4.16l23.18-13.38l7.2-4.16v-43.39l-7.2-4.16l-23.18-13.38v-67.76l30.18-16.97l26.65-14.98
					l26.65,14.98l30.18,16.97v67.76l0,0l-23.18,13.38l-7.2,4.16v43.39l7.2,4.16l23.18,13.38l7.2,4.16l7.2-4.16l23.18-13.38l7.2-4.16
					v-43.39l-7.2-4.16l-23.18-13.38l0,0v-67.76l30.18-16.97l26.65-14.98l39.49,22.2l17.34,9.75v67.76l0,0l-23.18,13.38l-7.2,4.16
					v43.39l7.2,4.16l23.18,13.38l7.2,4.16l7.2-4.16l23.18-13.38l7.2-4.16v-43.39l-7.2-4.16l-23.18-13.38v-67.76l30.18-16.97
					l26.65-14.98l26.65,14.98l30.18,16.97v67.76l0,0l-23.18,13.38l-7.2,4.16v43.39l7.2,4.16l23.18,13.38l7.2,4.16l7.2-4.16
					l23.18-13.38l7.2-4.16v-43.39l-7.2-4.16l-23.18-13.38l0,0v-67.76l56.82-31.95l39.49,22.2l17.34,9.75v67.76l0,0l-23.18,13.38
					l-7.2,4.16v43.39l7.2,4.16l23.18,13.38l7.2,4.16l0,0l7.2-4.16l23.18-13.38l7.2-4.16v-43.39l-7.2-4.16l-23.18-13.38l0,0v-67.76
					l30.18-16.97l26.65-14.98l26.65,14.98l30.18,16.97v67.76l-23.18,13.38l-7.2,4.16v43.39l7.2,4.16l23.18,13.38l7.2,4.16l7.2-4.16
					l23.18-13.38l7.2-4.16v-43.39l-7.2-4.16l-23.18-13.38l0,0v-67.76l30.18-16.97l26.65-14.98l26.65,14.98l30.18,16.97v67.76l0,0
					l-23.18,13.38l-7.2,4.16v43.39l7.2,4.16l23.18,13.38l7.2,4.16l7.2-4.16l23.18-13.38l7.2-4.16v-43.39l-7.2-4.16l-23.18-13.38l0,0
					v-67.76l30.18-16.97l26.65-14.98l26.65,14.98l30.18,16.97v67.76l-23.18,13.38l-7.2,4.16v43.39l7.2,4.16l23.18,13.38l7.2,4.16
					l7.2-4.16l23.18-13.38l7.2-4.16v-43.39l-7.2-4.16l-23.18-13.38l0,0v-67.76l30.18-16.97l26.65-14.98l26.65,14.98l30.18,16.97
					v67.76l0,0l-23.18,13.38l-7.2,4.16v43.39l7.2,4.16l23.18,13.38l7.2,4.16l7.2-4.16l23.18-13.38l7.2-4.16v-43.39l-7.2-4.16
					l-23.18-13.38l0,0v-67.76l60.35-33.94l-7.06-12.55L1091.94,1856.04z M1004.74,1730.48v-26.76l23.18-13.38l23.18,13.38v26.76
					l-23.18,13.38L1004.74,1730.48z M876.69,1730.48v-26.76l23.18-13.38l23.18,13.38v26.76l-23.18,13.38L876.69,1730.48z
					 M748.64,1730.48v-26.76l23.18-13.38l23.18,13.38v26.76l-23.18,13.38L748.64,1730.48z M620.6,1730.48v-26.76l23.18-13.38
					l23.18,13.38v26.76l-23.18,13.38L620.6,1730.48z M492.55,1730.48v-26.76l23.18-13.38l23.18,13.38v26.76l-23.18,13.38
					L492.55,1730.48z M364.5,1730.48v-26.76l23.18-13.38l23.18,13.38v26.76l-23.18,13.38L364.5,1730.48z M236.45,1703.72
					l23.18-13.38l23.18,13.38v26.76l-23.18,13.38l-23.18-13.38V1703.72z M108.4,1730.48v-26.76l23.18-13.38l23.18,13.38v26.76
					l-23.18,13.38L108.4,1730.48z M90.73,1988.89l-23.18,13.38l-23.18-13.38v-26.76l23.18-13.38l23.18,13.38V1988.89z
					 M218.78,1962.13v26.76l-23.18,13.38l-23.18-13.38v-26.76l23.18-13.38L218.78,1962.13z M346.83,1962.13v26.76l-23.18,13.38
					l-23.18-13.38v-26.76l23.18-13.38L346.83,1962.13z M474.87,1962.13v26.76l-23.18,13.38l-23.18-13.38v-26.76l23.18-13.38
					L474.87,1962.13z M556.57,1988.89v-26.76l23.18-13.38l23.18,13.38v26.76l-23.18,13.38L556.57,1988.89z M730.97,1962.13v26.76
					l-23.18,13.38l-23.18-13.38v-26.76l23.18-13.38L730.97,1962.13z M859.02,1962.13v26.76l-23.18,13.38l-23.18-13.38v-26.76
					l23.18-13.38L859.02,1962.13z M987.07,1962.13v26.76l-23.18,13.38l-23.18-13.38v-26.76l23.18-13.38L987.07,1962.13z
					 M1115.12,1962.13v26.76l-23.18,13.38l-23.18-13.38v-26.76l23.18-13.38L1115.12,1962.13z"/>
				<path id="Path_600" class="st9" d="M1091.94,368.3l-26.65-14.98l-30.18-16.97v-67.76l0,0l23.18-13.38l7.2-4.16v-43.39l-7.2-4.16
					l-23.18-13.38l-7.2-4.16l-7.2,4.16l-23.18,13.38l-7.2,4.16v43.39l7.2,4.16l23.18,13.38l0,0v67.76l-30.18,16.97l-26.65,14.98
					l-26.65-14.98l-30.18-16.97v-67.76l0,0l23.18-13.38l7.2-4.16v-43.39l-7.2-4.16l-23.18-13.38l-7.2-4.16l-7.2,4.16l-23.18,13.38
					l-7.2,4.16v43.39l7.2,4.16l23.18,13.38l0,0v67.76l-30.18,16.97l-26.65,14.98l-26.65-14.98l-30.18-16.97v-67.76l0,0l23.18-13.38
					l7.2-4.16v-43.39l-7.2-4.16l-23.18-13.38l-7.2-4.16l-7.2,4.16l-23.18,13.38l-7.2,4.16v43.39l7.2,4.16l23.18,13.38l0,0v67.76
					l-30.18,16.97L707.8,368.3l-26.65-14.98l-30.18-16.97v-67.76l0,0l23.18-13.38l7.2-4.16v-43.39l-7.2-4.16l-23.18-13.38l-7.2-4.16
					l-7.2,4.16l-23.18,13.38l-7.2,4.16v43.39l7.2,4.16l23.18,13.38l0,0v67.76l-30.18,16.97l-26.65,14.98l-26.65-14.98l-30.18-16.97
					v-67.76l23.18-13.38l7.2-4.16v-43.39l-7.2-4.16l-23.18-13.38l-7.2-4.16l-7.2,4.16l-23.18,13.38l-7.2,4.16v43.39l7.2,4.16
					l23.18,13.38l0,0v67.76l-43.02,24.19l-13.81,7.77l-26.65-14.98l-30.18-16.97v-67.76l0,0l23.17-13.38l7.2-4.16v-43.39l-7.2-4.16
					l-23.18-13.38l-7.2-4.16l-7.2,4.16l-23.18,13.38l-7.2,4.16v43.39l7.2,4.16l23.18,13.38l0,0v67.76l-30.18,16.97l-26.65,14.98
					l-56.82-31.95v-67.76L290,255.21l7.2-4.16v-43.39l-7.2-4.16l-23.18-13.38l-7.2-4.16l-7.2,4.16l-23.18,13.38l-7.2,4.16v43.39
					l7.2,4.16l23.18,13.38v67.76l-30.18,16.97L195.6,368.3l-26.65-14.98l-30.18-16.97v-67.76l0,0l23.18-13.38l7.2-4.16v-43.39
					l-7.2-4.16l-23.18-13.38l-7.2-4.16l-7.2,4.16l-23.18,13.38l-7.2,4.16v43.39l7.2,4.16l23.18,13.38l0,0v67.76L94.2,353.32
					L67.56,368.3l-60.5-34.02L0,346.84l60.35,33.94v67.76l0,0l-23.17,13.38l-7.2,4.16v43.39l7.2,4.16L60.36,527l7.2,4.16l7.2-4.16
					l23.18-13.38l7.2-4.16v-43.39l-7.2-4.16l-23.18-13.38v-67.76l30.18-16.97l26.65-14.98l26.65,14.98l30.18,16.97v67.76l0,0
					l-23.18,13.38l-7.2,4.16v43.39l7.2,4.16L188.4,527l7.2,4.16l7.2-4.16l23.18-13.38l7.2-4.16v-43.39l-7.2-4.16l-23.18-13.38l0,0
					v-67.76l30.18-16.96l26.65-14.98l39.49,22.2l17.34,9.75v67.76l0,0l-23.18,13.38l-7.2,4.16v43.39l7.2,4.16L316.45,527l7.2,4.16
					l7.2-4.16l23.18-13.38l7.2-4.16v-43.39l-7.2-4.16l-23.18-13.38l0,0v-67.76l30.18-16.97l26.65-14.98l26.65,14.98l30.18,16.97
					v67.76l0,0l-23.17,13.38l-7.2,4.16v43.39l7.2,4.16L444.5,527l7.2,4.16l7.2-4.16l23.18-13.38l7.2-4.16v-43.39l-7.2-4.16
					l-23.18-13.38l0,0v-67.76l56.82-31.95l39.49,22.2l17.34,9.75v67.76l0,0l-23.18,13.38l-7.2,4.16v43.39l7.2,4.16L572.55,527
					l7.2,4.16l0,0l7.2-4.16l23.18-13.38l7.2-4.16v-43.39l-7.2-4.16l-23.18-13.38l0,0v-67.76l30.18-16.97l26.65-14.98l26.65,14.98
					l30.18,16.97v67.76l-23.17,13.38l-7.2,4.16v43.39l7.2,4.16L700.59,527l7.2,4.16l7.2-4.16l23.18-13.38l7.2-4.16v-43.39l-7.2-4.16
					l-23.18-13.38l0,0v-67.76l30.18-16.97l26.65-14.98l26.65,14.98l30.18,16.97v67.76l0,0l-23.17,13.38l-7.2,4.16v43.39l7.2,4.16
					L828.64,527l7.2,4.16l7.2-4.16l23.18-13.38l7.2-4.16v-43.39l-7.2-4.16l-23.18-13.38l0,0v-67.76l30.18-16.97l26.65-14.98
					l26.65,14.98l30.18,16.97v67.76l-23.18,13.38l-7.2,4.16v43.39l7.2,4.16L956.69,527l7.2,4.16l7.2-4.16l23.18-13.38l7.2-4.16
					v-43.39l-7.2-4.16l-23.18-13.38l0,0v-67.76l30.18-16.97l26.65-14.98l26.65,14.98l30.18,16.97v67.76l0,0l-23.17,13.38l-7.2,4.16
					v43.39l7.2,4.16l23.18,13.38l7.2,4.16l7.2-4.16l23.18-13.38l7.2-4.16v-43.39l-7.2-4.16l-23.18-13.38l0,0v-67.76l60.35-33.94
					l-7.06-12.55L1091.94,368.3z M1004.74,242.74v-26.76l23.18-13.38l23.18,13.38v26.76l-23.18,13.38L1004.74,242.74z
					 M876.69,242.74v-26.76l23.18-13.38l23.18,13.38v26.76l-23.18,13.38L876.69,242.74z M748.64,242.74v-26.76l23.18-13.38
					L795,215.98v26.76l-23.18,13.38L748.64,242.74z M620.6,242.74v-26.76l23.18-13.38l23.18,13.38v26.76l-23.18,13.38L620.6,242.74z
					 M492.55,242.74v-26.76l23.18-13.38l23.18,13.38v26.76l-23.18,13.38L492.55,242.74z M364.5,242.74v-26.76l23.18-13.38
					l23.18,13.38v26.76l-23.18,13.38L364.5,242.74z M236.45,215.98l23.18-13.38l23.18,13.38v26.76l-23.18,13.38l-23.18-13.38V215.98
					z M108.4,242.74v-26.76l23.18-13.38l23.18,13.38v26.76l-23.18,13.38L108.4,242.74z M90.73,474.39v26.76l-23.18,13.38
					l-23.18-13.38v-26.76l23.18-13.38L90.73,474.39z M218.78,474.39v26.76l-23.18,13.38l-23.18-13.38v-26.76l23.18-13.38
					L218.78,474.39z M346.83,474.39v26.76l-23.18,13.38l-23.18-13.38v-26.76l23.18-13.38L346.83,474.39z M474.87,474.39v26.76
					l-23.18,13.38l-23.18-13.38v-26.76l23.18-13.38L474.87,474.39z M556.57,501.15v-26.76l23.18-13.38l23.18,13.38v26.76
					l-23.18,13.38L556.57,501.15z M730.97,474.39v26.76l-23.18,13.38l-23.18-13.38v-26.76l23.18-13.38L730.97,474.39z
					 M859.02,474.39v26.76l-23.18,13.38l-23.18-13.38v-26.76l23.18-13.38L859.02,474.39z M987.07,474.39v26.76l-23.18,13.38
					l-23.18-13.38v-26.76l23.18-13.38L987.07,474.39z M1115.12,474.39v26.76l-23.18,13.38l-23.18-13.38v-26.76l23.18-13.38
					L1115.12,474.39z"/>
				<path id="Path_601" class="st9" d="M1091.94,554.27l-26.65-14.98l-30.18-16.97v-67.76l0,0l23.18-13.38l7.2-4.16v-43.39
					l-7.2-4.16l-23.18-13.38l-7.2-4.16l-7.2,4.16l-23.18,13.38l-7.2,4.16v43.39l7.2,4.16l23.18,13.38l0,0v67.76l-30.18,16.97
					l-26.65,14.98l-26.65-14.98l-30.18-16.97v-67.76l0,0l23.18-13.38l7.2-4.16v-43.39l-7.2-4.16l-23.18-13.38l-7.2-4.16l-7.2,4.16
					l-23.18,13.38l-7.2,4.16v43.39l7.2,4.16l23.18,13.38l0,0v67.76l-30.18,16.97l-26.65,14.98l-26.65-14.98l-30.18-16.97v-67.76l0,0
					l23.18-13.38l7.2-4.16v-43.39l-7.2-4.16l-23.18-13.38l-7.2-4.16l-7.2,4.16l-23.18,13.38l-7.2,4.16v43.39l7.2,4.16l23.18,13.38
					l0,0v67.76l-30.18,16.97l-26.65,14.98l-26.65-14.98l-30.18-16.97v-67.76l0,0l23.18-13.38l7.2-4.16v-43.39l-7.2-4.16
					l-23.18-13.38l-7.2-4.16l-7.2,4.16l-23.18,13.38l-7.2,4.16v43.39l7.2,4.16l23.18,13.38l0,0v67.76l-30.18,16.97l-26.65,14.98
					l-26.65-14.98l-30.18-16.97v-67.76l23.18-13.38l7.2-4.16v-43.39l-7.2-4.16l-23.18-13.38l-7.2-4.16l-7.2,4.16l-23.18,13.38
					l-7.2,4.16v43.39l7.2,4.16l23.18,13.38l0,0v67.76l-42.04,23.64l-14.78,8.31l-26.65-14.98l-30.18-16.97v-67.76l0,0l23.18-13.38
					l7.2-4.16v-43.39l-7.2-4.16l-23.18-13.38l-7.2-4.16l-7.2,4.16l-23.18,13.38l-7.2,4.16v43.39l7.2,4.16l23.18,13.38l0,0v67.76
					l-30.18,16.97l-26.65,14.98l-56.82-31.95v-67.76L290,441.17l7.2-4.16v-43.39l-7.2-4.16l-23.18-13.38l-7.2-4.16l-7.2,4.16
					l-23.18,13.38l-7.2,4.16v43.39l7.2,4.16l23.18,13.38v67.76l-30.18,16.97l-26.65,14.98l-26.65-14.98l-30.17-16.97v-67.76l0,0
					l23.18-13.38l7.2-4.16v-43.39l-7.2-4.16l-23.18-13.38l-7.2-4.16l-7.2,4.16l-23.18,13.38l-7.2,4.16v43.39l7.2,4.16l23.18,13.38
					l0,0v67.76L94.2,539.28l-26.65,14.98l-60.5-34.02L0,532.8l60.35,33.94v67.76l0,0l-23.17,13.38l-7.2,4.16v43.39l7.2,4.16
					l23.18,13.38l7.2,4.16l7.2-4.16l23.18-13.38l7.2-4.16v-43.39l-7.2-4.16L74.76,634.5v-67.76l30.18-16.97l26.65-14.98l26.65,14.98
					l30.18,16.97v67.76l0,0l-23.18,13.38l-7.2,4.16v43.39l7.2,4.16l23.18,13.38l7.2,4.16l7.2-4.16l23.18-13.38l7.2-4.16v-43.39
					l-7.2-4.16L202.8,634.5l0,0v-67.76l30.18-16.97l26.65-14.98l38.51,21.66l18.31,10.3v67.76l0,0l-23.18,13.38l-7.2,4.16v43.39
					l7.2,4.16l23.18,13.38l7.2,4.16l7.2-4.16l23.18-13.38l7.2-4.16v-43.39l-7.2-4.16l-23.18-13.38l0,0v-67.76l30.18-16.97
					l26.65-14.98l26.65,14.98l30.18,16.97v67.76l0,0l-23.18,13.38l-7.2,4.16v43.39l7.2,4.16l23.18,13.38l7.2,4.16l7.2-4.16
					l23.18-13.38l7.2-4.16v-43.39l-7.2-4.16L458.9,634.5l0,0v-67.76l56.82-31.95l38.51,21.65l18.31,10.3v67.76l0,0l-23.17,13.38
					l-7.2,4.16v43.39l7.2,4.16l23.18,13.38l7.2,4.16l0,0l7.2-4.16l23.18-13.38l7.2-4.16v-43.39l-7.2-4.16l-23.18-13.38l0,0v-67.76
					l30.18-16.97l26.65-14.98l26.65,14.98l30.18,16.97v67.76l-23.18,13.38l-7.2,4.16v43.39l7.2,4.16l23.18,13.38l7.2,4.16l7.2-4.16
					l23.18-13.38l7.2-4.16v-43.39l-7.2-4.16l-23.18-13.38l0,0v-67.76l30.18-16.97l26.65-14.98l26.65,14.98l30.18,16.97v67.76l0,0
					l-23.18,13.38l-7.2,4.16v43.39l7.2,4.16l23.18,13.38l7.2,4.16l7.2-4.16l23.18-13.38l7.2-4.16v-43.39l-7.2-4.16l-23.18-13.38l0,0
					v-67.76l30.18-16.97l26.65-14.98l26.65,14.98l30.18,16.97v67.76l-23.18,13.38l-7.2,4.16v43.39l7.2,4.16l23.18,13.38l7.2,4.16
					l7.2-4.16l23.18-13.38l7.2-4.16v-43.39l-7.2-4.16l-23.18-13.38l0,0v-67.76l30.18-16.97l26.65-14.98l26.65,14.98l30.18,16.97
					v67.76l0,0l-23.18,13.38l-7.2,4.16v43.39l7.2,4.16l23.18,13.38l7.2,4.16l7.2-4.16l23.18-13.38l7.2-4.16v-43.39l-7.2-4.16
					l-23.18-13.38l0,0v-67.76l60.35-33.94l-7.06-12.55L1091.94,554.27z M1004.74,428.71v-26.76l23.18-13.38l23.18,13.38v26.76
					l-23.18,13.38L1004.74,428.71z M876.69,428.71v-26.76l23.18-13.38l23.18,13.38v26.76l-23.18,13.38L876.69,428.71z
					 M748.64,428.71v-26.76l23.18-13.38L795,401.95v26.76l-23.18,13.38L748.64,428.71z M620.6,428.71v-26.76l23.18-13.38
					l23.18,13.38v26.76l-23.18,13.38L620.6,428.71z M492.55,428.71v-26.76l23.18-13.38l23.18,13.38v26.76l-23.18,13.38
					L492.55,428.71z M364.5,428.71v-26.76l23.18-13.38l23.18,13.38v26.76l-23.18,13.38L364.5,428.71z M236.45,401.95l23.18-13.38
					l23.18,13.38v26.76l-23.18,13.38l-23.18-13.38V401.95z M108.4,428.71v-26.76l23.18-13.38l23.18,13.38v26.76l-23.18,13.38
					L108.4,428.71z M90.73,660.35v26.76l-23.18,13.38l-23.17-13.38v-26.76l23.18-13.38L90.73,660.35z M218.78,660.35v26.76
					l-23.18,13.38l-23.18-13.38v-26.76l23.18-13.38L218.78,660.35z M346.83,660.35v26.76l-23.18,13.38l-23.18-13.38v-26.76
					l23.18-13.38L346.83,660.35z M474.87,660.35v26.76l-23.18,13.38l-23.17-13.38v-26.76l23.18-13.38L474.87,660.35z M556.57,687.11
					v-26.76l23.18-13.38l23.18,13.38v26.76l-23.18,13.38L556.57,687.11z M730.97,660.35v26.76l-23.18,13.38l-23.18-13.38v-26.76
					l23.18-13.38L730.97,660.35z M859.02,660.35v26.76l-23.18,13.38l-23.18-13.38v-26.76l23.18-13.38L859.02,660.35z M987.07,660.35
					v26.76l-23.18,13.38l-23.18-13.38v-26.76l23.18-13.38L987.07,660.35z M1115.12,660.35v26.76l-23.18,13.38l-23.18-13.38v-26.76
					l23.18-13.38L1115.12,660.35z"/>
				<path id="Path_602" class="st9" d="M1091.94,926.21l-26.65-14.99l-30.18-16.97v-67.76l0,0l23.18-13.38l7.2-4.16v-43.39
					l-7.2-4.16l-23.18-13.38l-7.2-4.16l-7.2,4.16l-23.18,13.38l-7.2,4.16v43.39l7.2,4.16l23.18,13.38l0,0v67.76l-30.18,16.97
					l-26.65,14.98l-26.65-14.98l-30.18-16.97v-67.76l0,0l23.18-13.38l7.2-4.16v-43.39l-7.2-4.16l-23.18-13.38l-7.2-4.16l-7.2,4.16
					l-23.18,13.38l-7.2,4.16v43.39l7.2,4.16l23.18,13.38l0,0v67.76l-30.18,16.97l-26.65,14.98l-26.65-14.98l-30.18-16.97v-67.76l0,0
					l23.18-13.38l7.2-4.16v-43.39l-7.2-4.16l-23.18-13.38l-7.2-4.16l-7.2,4.16l-23.18,13.38l-7.2,4.16v43.39l7.2,4.16l23.18,13.38
					l0,0v67.76l-30.18,16.97l-26.65,14.98l-26.65-14.98l-30.18-16.97v-67.76l0,0l23.18-13.38l7.2-4.16v-43.39l-7.2-4.16
					l-23.18-13.38l-7.2-4.16l-7.2,4.16l-23.18,13.38l-7.2,4.16v43.39l7.2,4.16l23.18,13.38l0,0v67.76l-30.18,16.97l-26.65,14.98
					l-26.65-14.98l-30.18-16.97v-67.76l23.18-13.38l7.2-4.16v-43.39l-7.2-4.16l-23.18-13.38l-7.2-4.16l-7.2,4.16l-23.18,13.38
					l-7.2,4.16v43.39l7.2,4.16l23.18,13.38l0,0v67.76l-43.02,24.19l-13.81,7.77l-26.65-14.98l-30.18-16.97v-67.76l0,0l23.18-13.38
					l7.2-4.16v-43.39l-7.2-4.16l-23.18-13.38l-7.2-4.16l-7.2,4.16l-23.18,13.38l-7.2,4.16v43.39l7.2,4.16l23.18,13.38l0,0v67.76
					l-30.18,16.97l-26.65,14.98l-56.82-31.95v-67.76L290,813.11l7.2-4.16v-43.39l-7.2-4.16l-23.18-13.38l-7.2-4.16l-7.2,4.16
					l-23.18,13.38l-7.2,4.16v43.39l7.2,4.16l23.18,13.38v67.76l-30.18,16.97l-26.65,14.98l-26.65-14.98l-30.18-16.97v-67.76l0,0
					l23.18-13.38l7.2-4.16v-43.39l-7.2-4.16l-23.18-13.38l-7.2-4.16l-7.2,4.16l-23.18,13.38l-7.2,4.16v43.39l7.2,4.16l23.18,13.38
					l0,0v67.76L94.2,911.22l-26.65,14.98l-60.5-34.02L0,904.74l60.35,33.94v67.76l0,0l-23.17,13.39l-7.2,4.16v43.39l7.2,4.16
					l23.18,13.38l7.2,4.16l7.2-4.16l23.17-13.38l7.2-4.16v-43.39l-7.2-4.16l-23.18-13.38v-67.76l30.18-16.97l26.65-14.99
					l26.65,14.98l30.18,16.97v67.76l0,0l-23.18,13.38l-7.2,4.16v43.39l7.2,4.16l23.18,13.38l7.2,4.16l7.2-4.16l23.18-13.38l7.2-4.16
					v-43.39l-7.2-4.16l-23.18-13.38l0,0v-67.76l30.18-16.97l26.65-14.98l39.49,22.2l17.34,9.75v67.76l0,0l-23.18,13.38l-7.2,4.16
					v43.39l7.2,4.16l23.18,13.38l7.2,4.16l7.2-4.16l23.17-13.38l7.2-4.16v-43.39l-7.2-4.16l-23.18-13.38l0,0v-67.76l30.18-16.97
					l26.65-14.98l26.65,14.98l30.18,16.97v67.76l0,0l-23.18,13.38l-7.2,4.16v43.39l7.2,4.16l23.18,13.38l7.2,4.16l7.2-4.16
					l23.18-13.38l7.2-4.16v-43.39l-7.2-4.16l-23.18-13.38l0,0v-67.76l56.82-31.95l39.49,22.2l17.34,9.75v67.76l0,0l-23.18,13.39
					l-7.2,4.16v43.39l7.2,4.16l23.18,13.38l7.2,4.16l0,0l7.2-4.16l23.18-13.38l7.2-4.16v-43.39l-7.2-4.16l-23.18-13.38l0,0v-67.76
					l30.18-16.97l26.65-14.98l26.65,14.98l30.18,16.97v67.76l-23.18,13.38l-7.2,4.16v43.39l7.2,4.16l23.18,13.38l7.2,4.16l7.2-4.16
					l23.18-13.38l7.2-4.16v-43.39l-7.2-4.16L715,1006.44l0,0v-67.76l30.18-16.97l26.65-14.98l26.65,14.98l30.18,16.97v67.76l0,0
					l-23.18,13.38l-7.2,4.16v43.39l7.2,4.16l23.18,13.38l7.2,4.16l7.2-4.16l23.18-13.38l7.2-4.16v-43.39l-7.2-4.16l-23.18-13.38l0,0
					v-67.76l30.18-16.97l26.65-14.98l26.65,14.98l30.18,16.97v67.76l-23.18,13.38l-7.2,4.16v43.39l7.2,4.16l23.18,13.38l7.2,4.16
					l7.2-4.16l23.18-13.38l7.2-4.16v-43.39l-7.2-4.16l-23.18-13.38l0,0v-67.76l30.18-16.97l26.65-14.98l26.65,14.98l30.18,16.97
					v67.76l0,0l-23.18,13.38l-7.2,4.16v43.39l7.2,4.16l23.18,13.38l7.2,4.16l7.2-4.16l23.18-13.38l7.2-4.16v-43.39l-7.2-4.16
					l-23.18-13.38l0,0v-67.76l60.35-33.94l-7.06-12.55L1091.94,926.21z M1004.74,800.64v-26.76l23.18-13.38l23.18,13.38v26.76
					l-23.18,13.38L1004.74,800.64z M876.69,800.64v-26.76l23.18-13.38l23.18,13.38v26.76l-23.18,13.38L876.69,800.64z
					 M748.64,800.64v-26.76l23.18-13.38L795,773.88v26.76l-23.18,13.38L748.64,800.64z M620.6,800.64v-26.76l23.18-13.38
					l23.18,13.38v26.76l-23.18,13.38L620.6,800.64z M492.55,800.64v-26.76l23.18-13.38l23.18,13.38v26.76l-23.18,13.38
					L492.55,800.64z M364.5,800.64v-26.76l23.18-13.38l23.18,13.38v26.76l-23.18,13.38L364.5,800.64z M236.45,773.88l23.18-13.38
					l23.18,13.38v26.76l-23.18,13.38l-23.18-13.38V773.88z M108.4,800.64v-26.76l23.18-13.38l23.18,13.38v26.76l-23.18,13.38
					L108.4,800.64z M90.73,1032.29v26.76l-23.18,13.38l-23.17-13.38v-26.76l23.18-13.38L90.73,1032.29z M218.78,1032.29v26.76
					l-23.18,13.38l-23.18-13.38v-26.76l23.18-13.38L218.78,1032.29z M346.83,1032.29v26.76l-23.18,13.38l-23.18-13.38v-26.76
					l23.18-13.38L346.83,1032.29z M474.87,1032.29v26.76l-23.18,13.38l-23.18-13.38v-26.76l23.18-13.38L474.87,1032.29z
					 M556.57,1059.05v-26.76l23.18-13.38l23.18,13.38v26.76l-23.18,13.38L556.57,1059.05z M730.97,1032.29v26.76l-23.18,13.38
					l-23.18-13.38v-26.76l23.18-13.38L730.97,1032.29z M859.02,1032.29v26.76l-23.18,13.38l-23.18-13.38v-26.76l23.18-13.38
					L859.02,1032.29z M987.07,1032.29v26.76l-23.18,13.38l-23.18-13.38v-26.76l23.18-13.38L987.07,1032.29z M1115.12,1032.29v26.76
					l-23.18,13.38l-23.18-13.38v-26.76l23.18-13.38L1115.12,1032.29z"/>
				<path id="Path_603" class="st9" d="M1091.94,740.24l-26.65-14.98l-30.18-16.97v-67.76l0,0l23.18-13.38l7.2-4.16V579.6l-7.2-4.16
					l-23.18-13.38l-7.2-4.16l-7.2,4.16l-23.18,13.38l-7.2,4.16v43.39l7.2,4.16l23.18,13.38l0,0v67.76l-30.18,16.97l-26.65,14.98
					l-26.65-14.98l-30.18-16.97v-67.76l0,0l23.18-13.38l7.2-4.16V579.6l-7.2-4.16l-23.18-13.38l-7.2-4.16l-7.2,4.16l-23.18,13.38
					l-7.2,4.16v43.39l7.2,4.16l23.18,13.38l0,0v67.76l-30.18,16.97l-26.65,14.98l-26.65-14.98l-30.18-16.97v-67.76l0,0l23.18-13.38
					l7.2-4.16V579.6l-7.2-4.16l-23.18-13.38l-7.2-4.16l-7.2,4.16l-23.18,13.38l-7.2,4.16v43.39l7.2,4.16l23.18,13.38l0,0v67.76
					l-30.18,16.97l-26.65,14.98l-26.65-14.98l-30.18-16.97v-67.76l0,0l23.18-13.38l7.2-4.16V579.6l-7.2-4.16l-23.18-13.38l-7.2-4.16
					l-7.2,4.16l-23.18,13.38l-7.2,4.16v43.39l7.2,4.16l23.18,13.38l0,0v67.76l-30.18,16.97l-26.65,14.98l-26.65-14.98l-30.18-16.97
					v-67.76l23.18-13.38l7.2-4.16V579.6l-7.2-4.16l-23.18-13.38l-7.2-4.16l-7.2,4.16l-23.18,13.38l-7.2,4.16v43.39l7.2,4.16
					l23.18,13.38l0,0v67.76l-43.02,24.19l-13.81,7.77l-26.65-14.98l-30.18-16.97v-67.76l0,0l23.18-13.38l7.2-4.16V579.6l-7.2-4.16
					l-23.18-13.38l-7.2-4.16l-7.2,4.16l-23.18,13.38l-7.2,4.16v43.39l7.2,4.16l23.18,13.38l0,0v67.76l-30.18,16.97l-26.65,14.98
					l-56.82-31.95v-67.76L290,627.14l7.2-4.16V579.6l-7.2-4.16l-23.18-13.38l-7.2-4.16l-7.2,4.16l-23.18,13.38l-7.2,4.16v43.39
					l7.2,4.16l23.18,13.38v67.76l-30.18,16.97l-26.65,14.98l-26.65-14.98l-30.18-16.97v-67.76l0,0l23.18-13.38l7.2-4.16V579.6
					l-7.2-4.16l-23.18-13.38l-7.2-4.16l-7.2,4.16l-23.18,13.38L94,579.6v43.39l7.2,4.16l23.18,13.38l0,0v67.76L94.2,725.25
					l-26.65,14.98l-60.5-34.02L0,718.77l60.35,33.94v67.76l0,0l-23.17,13.38l-7.2,4.16v43.39l7.2,4.16l23.18,13.38l7.2,4.16
					l7.2-4.16l23.18-13.38l7.2-4.16v-43.39l-7.2-4.16l-23.18-13.38v-67.76l30.18-16.97l26.65-14.98l26.65,14.98l30.18,16.97v67.76
					l0,0l-23.18,13.38l-7.2,4.16v43.39l7.2,4.16l23.18,13.38l7.2,4.16l7.2-4.16l23.18-13.38l7.2-4.16v-43.39l-7.2-4.16l-23.18-13.38
					l0,0v-67.76l30.18-16.97l26.65-14.98l39.49,22.2l17.34,9.75v67.76l0,0l-23.18,13.38l-7.2,4.16v43.39l7.2,4.16l23.18,13.38
					l7.2,4.16l7.2-4.16l23.18-13.38l7.2-4.16v-43.39l-7.2-4.16l-23.18-13.38l0,0v-67.76l30.18-16.97l26.65-14.98l26.65,14.98
					l30.18,16.97v67.76l0,0l-23.18,13.38l-7.2,4.16v43.39l7.2,4.16l23.18,13.38l7.2,4.16l7.2-4.16l23.18-13.38l7.2-4.16v-43.39
					l-7.2-4.16l-23.18-13.38l0,0v-67.76l56.82-31.95l39.49,22.2l17.34,9.75v67.76l0,0l-23.18,13.38l-7.2,4.16v43.39l7.2,4.16
					l23.18,13.38l7.2,4.16l0,0l7.2-4.16l23.18-13.38l7.2-4.16v-43.39l-7.2-4.16l-23.18-13.38l0,0v-67.76l30.18-16.97l26.65-14.98
					l26.65,14.98l30.18,16.97v67.76l-23.18,13.38l-7.2,4.16v43.39l7.2,4.16l23.18,13.38l7.2,4.16l7.2-4.16l23.18-13.38l7.2-4.16
					v-43.39l-7.2-4.16l-23.18-13.38l0,0v-67.76l30.18-16.97l26.65-14.98l26.65,14.98l30.18,16.97v67.76l0,0l-23.18,13.38l-7.2,4.16
					v43.39l7.2,4.16l23.18,13.38l7.2,4.16l7.2-4.16l23.18-13.38l7.2-4.16v-43.39l-7.2-4.16l-23.18-13.38l0,0v-67.76l30.18-16.97
					l26.65-14.98l26.65,14.98l30.18,16.97v67.76l-23.18,13.38l-7.2,4.16v43.39l7.2,4.16l23.18,13.38l7.2,4.16l7.2-4.16l23.18-13.38
					l7.2-4.16v-43.39l-7.2-4.16l-23.18-13.38l0,0v-67.76l30.18-16.97l26.65-14.98l26.65,14.98l30.18,16.97v67.76l0,0l-23.18,13.38
					l-7.2,4.16v43.39l7.2,4.16l23.18,13.38l7.2,4.16l7.2-4.16l23.18-13.38l7.2-4.16v-43.39l-7.2-4.16l-23.18-13.38l0,0v-67.76
					l60.35-33.94l-7.05-12.55L1091.94,740.24z M1004.74,614.67v-26.76l23.18-13.38l23.18,13.38v26.76l-23.18,13.38L1004.74,614.67z
					 M876.69,614.67v-26.76l23.18-13.38l23.17,13.38v26.76l-23.18,13.38L876.69,614.67z M748.64,614.67v-26.76l23.18-13.38
					L795,587.92v26.76l-23.18,13.38L748.64,614.67z M620.6,614.67v-26.76l23.18-13.38l23.17,13.38v26.76l-23.17,13.38L620.6,614.67z
					 M492.55,614.67v-26.76l23.18-13.38l23.18,13.38v26.76l-23.18,13.38L492.55,614.67z M364.5,614.67v-26.76l23.18-13.38
					l23.18,13.38v26.76l-23.18,13.38L364.5,614.67z M236.45,587.92l23.18-13.38l23.18,13.38v26.76l-23.18,13.38l-23.18-13.38V587.92
					z M108.4,614.67v-26.76l23.18-13.39l23.17,13.39v26.76l-23.17,13.38L108.4,614.67z M90.73,846.32v26.76l-23.18,13.38
					l-23.17-13.38v-26.77l23.18-13.38L90.73,846.32z M218.78,846.32v26.76l-23.18,13.38l-23.18-13.38v-26.76l23.18-13.38
					L218.78,846.32z M346.83,846.32v26.76l-23.18,13.38l-23.18-13.38v-26.76l23.18-13.38L346.83,846.32z M474.87,846.32v26.76
					l-23.18,13.38l-23.18-13.38v-26.76l23.18-13.38L474.87,846.32z M556.57,873.08v-26.76l23.18-13.38l23.18,13.38v26.76
					l-23.18,13.38L556.57,873.08z M730.97,846.32v26.76l-23.18,13.38l-23.18-13.38v-26.76l23.18-13.38L730.97,846.32z
					 M859.02,846.32v26.76l-23.18,13.38l-23.18-13.38v-26.76l23.18-13.38L859.02,846.32z M987.07,846.32v26.76l-23.18,13.38
					l-23.18-13.38v-26.76l23.18-13.38L987.07,846.32z M1115.12,846.32v26.76l-23.18,13.38l-23.18-13.38v-26.76l23.18-13.38
					L1115.12,846.32z"/>
				<path id="Path_604" class="st9" d="M1091.94,1112.17l-26.65-14.98l-30.18-16.97v-67.76l0,0l23.18-13.38l7.2-4.16v-43.39
					l-7.2-4.16l-23.18-13.38l-7.2-4.16l-7.2,4.16l-23.18,13.38l-7.2,4.16v43.39l7.2,4.16l23.18,13.38l0,0v67.76l-30.18,16.97
					l-26.65,14.98l-26.65-14.98l-30.18-16.97v-67.76l0,0l23.18-13.38l7.2-4.16v-43.39l-7.2-4.16L907.07,934l-7.2-4.16l-7.2,4.16
					l-23.18,13.38l-7.2,4.16v43.39l7.2,4.16l23.18,13.38l0,0v67.76l-30.18,16.97l-26.65,14.98l-26.65-14.98l-30.18-16.97v-67.76l0,0
					l23.18-13.38l7.2-4.16v-43.39l-7.2-4.16L779.02,934l-7.2-4.16l-7.2,4.16l-23.18,13.38l-7.2,4.16v43.39l7.2,4.16l23.18,13.38l0,0
					v67.76l-30.18,16.97l-26.65,14.98l-26.65-14.98l-30.18-16.97v-67.76l0,0l23.18-13.38l7.2-4.16v-43.39l-7.2-4.16L650.97,934
					l-7.2-4.16l-7.2,4.16l-23.18,13.38l-7.2,4.16v43.39l7.2,4.16l23.18,13.38l0,0v67.76l-30.18,16.97l-26.65,14.98l-26.65-14.98
					l-30.18-16.97v-67.76l23.18-13.38l7.2-4.16v-43.39l-7.2-4.16L522.93,934l-7.2-4.16l-7.2,4.16l-23.18,13.38l-7.2,4.16v43.39
					l7.2,4.16l23.18,13.38l0,0v67.76l-43.02,24.19l-13.81,7.77l-26.65-14.98l-30.18-16.97v-67.76l0,0l23.18-13.38l7.2-4.16v-43.39
					l-7.2-4.16L394.88,934l-7.2-4.16l-7.2,4.16l-23.18,13.38l-7.2,4.16v43.39l7.2,4.16l23.18,13.38l0,0v67.76l-30.18,16.97
					l-26.65,14.98l-56.83-31.95v-67.76L290,999.08l7.2-4.16v-43.39l-7.2-4.16L266.83,934l-7.2-4.16l-7.2,4.16l-23.18,13.38
					l-7.2,4.16v43.39l7.2,4.16l23.18,13.38v67.76l-30.18,16.97l-26.65,14.98l-26.65-14.98l-30.17-16.97v-67.76l0,0l23.18-13.38
					l7.2-4.16v-43.39l-7.2-4.16L138.78,934l-7.2-4.16l-7.2,4.16l-23.18,13.38l-7.2,4.16v43.39l7.2,4.16l23.18,13.38l0,0v67.76
					l-30.18,16.97l-26.65,14.98l-60.5-34.02L0,1090.71l60.35,33.94v67.76l0,0l-23.17,13.38l-7.2,4.16v43.39l7.2,4.16l23.18,13.38
					l7.2,4.16l7.2-4.16l23.18-13.38l7.2-4.16v-43.39l-7.2-4.16l-23.18-13.38v-67.76l30.18-16.97l26.65-14.98l26.65,14.98
					l30.18,16.97v67.76l0,0l-23.18,13.38l-7.2,4.16v43.39l7.2,4.16l23.18,13.38l7.2,4.16l7.2-4.16l23.18-13.38l7.2-4.16v-43.39
					l-7.2-4.16l-23.18-13.38l0,0v-67.76l30.18-16.97l26.65-14.98l39.49,22.2l17.34,9.75v67.76l0,0l-23.18,13.38l-7.2,4.16v43.39
					l7.2,4.16l23.18,13.38l7.2,4.16l7.2-4.16l23.18-13.38l7.2-4.16v-43.39l-7.2-4.16l-23.18-13.38l0,0v-67.75l30.18-16.97
					l26.65-14.98l26.65,14.98l30.18,16.97v67.76l0,0l-23.18,13.38l-7.2,4.16v43.39l7.2,4.16l23.18,13.38l7.2,4.16l7.2-4.16
					l23.18-13.38l7.2-4.16v-43.39l-7.2-4.16l-23.18-13.38l0,0v-67.76l56.82-31.95l39.49,22.2l17.34,9.75v67.76l0,0l-23.18,13.38
					l-7.2,4.16v43.39l7.2,4.16l23.18,13.38l7.2,4.16l0,0l7.2-4.16l23.18-13.38l7.2-4.16v-43.39l-7.2-4.16l-23.18-13.38l0,0v-67.75
					l30.18-16.97l26.65-14.98l26.65,14.98l30.18,16.97v67.76l-23.18,13.38l-7.2,4.16v43.39l7.2,4.16l23.18,13.38l7.2,4.16l7.2-4.16
					l23.18-13.38l7.2-4.16v-43.39l-7.2-4.16l-23.18-13.38l0,0v-67.76l30.18-16.97l26.65-14.98l26.65,14.98l30.18,16.97v67.76l0,0
					l-23.18,13.38l-7.2,4.16v43.39l7.2,4.16l23.18,13.38l7.2,4.16l7.2-4.16l23.18-13.38l7.2-4.16v-43.39l-7.2-4.16l-23.18-13.38l0,0
					v-67.76l30.18-16.97l26.65-14.98l26.65,14.98l30.18,16.97v67.76l-23.18,13.38l-7.2,4.16v43.39l7.2,4.16l23.18,13.38l7.2,4.16
					l7.2-4.16l23.18-13.38l7.2-4.16v-43.39l-7.2-4.16l-23.18-13.38l0,0v-67.76l30.18-16.97l26.65-14.98l26.65,14.98l30.18,16.97
					v67.76l0,0l-23.18,13.38l-7.2,4.16v43.39l7.2,4.16l23.18,13.38l7.2,4.16l7.2-4.16l23.18-13.38l7.2-4.16v-43.39l-7.2-4.16
					l-23.18-13.38l0,0v-67.76l60.35-33.94l-7.06-12.55L1091.94,1112.17z M1004.74,986.61v-26.76l23.18-13.38l23.18,13.38v26.76
					l-23.18,13.38L1004.74,986.61z M876.69,986.61v-26.76l23.18-13.38l23.18,13.38v26.76l-23.18,13.38L876.69,986.61z
					 M748.64,986.61v-26.76l23.18-13.38L795,959.85v26.76l-23.18,13.38L748.64,986.61z M620.6,986.61v-26.76l23.18-13.38
					l23.18,13.38v26.76l-23.18,13.38L620.6,986.61z M492.55,986.61v-26.76l23.18-13.38l23.18,13.38v26.76l-23.18,13.38
					L492.55,986.61z M364.5,986.61v-26.76l23.18-13.38l23.18,13.38v26.76l-23.18,13.38L364.5,986.61z M236.45,959.85l23.18-13.38
					l23.18,13.38v26.76l-23.18,13.38l-23.18-13.38V959.85z M108.4,986.61v-26.76l23.18-13.38l23.18,13.38v26.76l-23.17,13.38
					L108.4,986.61z M90.73,1218.26v26.76l-23.18,13.38l-23.17-13.38v-26.76l23.18-13.38L90.73,1218.26z M218.78,1218.26v26.76
					l-23.18,13.38l-23.18-13.38v-26.76l23.18-13.38L218.78,1218.26z M346.83,1218.26v26.76l-23.18,13.38l-23.18-13.38v-26.76
					l23.18-13.38L346.83,1218.26z M474.87,1218.26v26.76l-23.18,13.38l-23.18-13.38v-26.76l23.18-13.38L474.87,1218.26z
					 M556.57,1245.02v-26.76l23.18-13.38l23.18,13.38v26.76l-23.18,13.38L556.57,1245.02z M730.97,1218.26v26.76l-23.18,13.38
					l-23.18-13.38v-26.76l23.18-13.38L730.97,1218.26z M859.02,1218.26v26.76l-23.18,13.38l-23.18-13.38v-26.76l23.18-13.38
					L859.02,1218.26z M987.07,1218.26v26.76l-23.18,13.38l-23.18-13.38v-26.76l23.18-13.38L987.07,1218.26z M1115.12,1218.26v26.76
					l-23.18,13.38l-23.18-13.38v-26.76l23.18-13.38L1115.12,1218.26z"/>
			</g>
		</g>
	</g>
</g>
</svg>
